<?xml version="1.0" encoding="iso-8859-1"?>
<!-- Generator: Adobe Illustrator 19.0.0, SVG Export Plug-In . SVG Version: 6.00 Build 0)  -->
<svg version="1.1" id="Layer_1" xmlns="http://www.w3.org/2000/svg" xmlns:xlink="http://www.w3.org/1999/xlink" x="0px" y="0px"
	 viewBox="0 0 496.2 496.2" style="enable-background:new 0 0 496.2 496.2;" xml:space="preserve">
<path style="fill:#D5EDEF;" d="M0,248.1C0,111.1,111.1,0,248.1,0s248.1,111.1,248.1,248.1S385.1,496.2,248.1,496.2S0,385.1,0,248.1z
	"/>
<path style="fill:#65A844;" d="M0,248.1h496.2c0,137-111.1,248.1-248.1,248.1S0,385.1,0,248.1z"/>
<path style="fill:#E5A67C;" d="M129.3,79.7c1.8-3.3,14.8,5.9,19.5,7.2l3.8,5c31.7,14.3,43.1,25,43.1,25
	c19.3,7.7,55.7,24.4,61.9,29.3c6.2,4.9-3.7,21.4-11,18.2c-7.3-3.2-13.4-6.9-20.3-10.6c-6.9-3.7-31.9-19.6-37.7-23.5
	c-0.8-0.5-41.4-28.4-41.4-28.4s-1.8-0.9-5.3-1.4c-4.8-0.7-10.7-4.3-13.2-7.6C126.8,89.9,127.6,83,129.3,79.7z"/>
<path style="fill:#EA4949;" d="M147.9,63.5c-0.2-0.3-0.4-0.4-0.7-0.5l-13.8-3.2c-0.6-0.1-1.2,0.2-1.4,0.8l-5.4,23.2
	c-0.1,0.6,0.2,1.2,0.8,1.4l13.8,3.2c0.2,0,0.4,0,0.5,0s0.2-0.1,0.3-0.1c0.3-0.2,0.4-0.4,0.5-0.7l5.4-23.2
	C148.1,64.1,148,63.8,147.9,63.5z"/>
<path style="fill:#E5A67C;" d="M143.8,86c0,0-4.6-2-3.8-4.5c0.7-2.1,1.1-2.8,8.8,5.4C148.8,86.9,148,88.2,143.8,86z"/>
<path style="fill:#D89C73;" d="M248.1,133.6c0,0,2.2-4.4,1-12.2l15.6-4.5c-2.8,8.5,0.9,16,0.9,16C254,131.9,248.1,133.6,248.1,133.6
	z"/>
<g>
	<path style="fill:#EDA87A;" d="M238.5,99.1c-2.2-6.3-1.2-10.8,0.6-14.7c4.4-9.2,13-10.9,21.6-10.7c11.3,0.3,10,37,8.6,41.9
		c-0.7,2.6-1.9,6-4.1,6.3c-5.6,0.9-15.6,3.9-18.6,4.4c-5.4,0.8-6.5-1.6-6.2-4.9c0-0.1-0.4-1.3-0.4-1.3c0-1.1,0.1-2.6-0.6-4.1
		c0,0-0.2-1-0.1-1.5c0-0.4,0-0.6-0.4-0.7c-1.2-0.5-2.7-0.9-3.1-1.3C234.3,110.7,239.6,102.2,238.5,99.1z"/>
	<path style="fill:#EDA87A;" d="M244.2,117.9c0,0-0.8,0.1-4.5,0c-0.5-0.2-1.2-0.7-0.5-1.7C239.7,115.4,241.9,116.9,244.2,117.9z"/>
	<path style="fill:#EDA87A;" d="M244.2,117.9c0,0-0.8,1.5-4.2,2.2c-0.5-0.1-0.8-0.5-0.9-0.7c-0.4-1.1,0.7-1.5,0.7-1.5
		C243.4,117.9,244.2,117.9,244.2,117.9z"/>
</g>
<path style="fill:#381A09;" d="M261,73.2c12.1,0.3,23.8,16.9,15,34.7c-1.5,3-7.3,9.1-11.3,7.1c-3.4-1.7-4.1-4.9-4.1-4.9
	c-0.6-0.9-1.2-1.9-1.9-3c-0.7-1.2-1-11.4-2.4-11.7l-2.3-8.8l-15.4-1.2C243.2,77.4,246.3,72.9,261,73.2z"/>
<path style="fill:#EDA87A;" d="M262.9,106.1c-2.2,6.1-4.8,6.3-8.4,5.9l2.3-9.5l2-3.8C262.4,99.2,265.1,100.1,262.9,106.1z"/>
<path style="fill:#381A09;" d="M257.1,102.6c0.7-2,1.4-3.4,2-4.3H259c0.8,0.3,1.2,0.4,1.2,0.4c0-0.6,0-1.2,0-1.8l-4-1.5
	c0,0,0.2,0.8,0.2,1.9c0,0.8,0,1.8-0.2,2.9C255.5,103.7,257.1,102.6,257.1,102.6z"/>
<path style="fill:#EDA87A;" d="M222,422.4c4.1,0,33.4,0,34.9-0.1c3.6-0.1,7.1-2.1,6.4-5.5c-0.5-2.6-1.6-7.7-1.6-9.3
	c-0.3-14.5-0.3-24.1,1.5-34c5-27.5-0.6-44.8-0.5-47.2c0.1-1.9,0.5-18.8,0.8-23.2c0.5-8.5-29.5-2.4-29.2,0.5c0.3,3.8,2,13,3,24.5
	c2.6,30.3,11.4,76.2,12.1,80c0,0-31.7,6-31.2,9.7C218.4,419.9,219.5,422.4,222,422.4z"/>
<path style="fill:#3D3C3C;" d="M230.5,237.9c0-4.9,19.8-8.9,19.8-8.9l24.1,3.9c0,0,1.8,7.2,3,15.8c2,13.9-8.2,55.9-8.2,55.9h-37.9
	c-1.2-10.6,0.9-22.9,1.1-33.5C231.9,256,230.5,244.5,230.5,237.9z"/>
<path style="fill:#DD9F12;" d="M244.3,135.2c1.6-0.9,7.5-4,13.1-4c8.3,0,11.2,1.3,15.8,7.2c8.3,10.7-2.2,60.8-0.8,77.3
	c0.5,6,1.7,12.3,2.8,17.8c0,0-18.7,1.2-28,2.5c-8.2,1.2-17.8,2.6-17.8,2.6c0.8-10.5-1.2-65.4-1.2-75
	C228.1,149.7,235.9,140.1,244.3,135.2z"/>
<path style="fill:#3A3A39;" d="M222,422.4c4.1,0,33.4,0,34.9-0.1c3.6-0.1,7.1-2.1,6.4-5.5c-0.5-2.6-45.6-2.9-45.2,0.9
	C218.4,419.9,219.5,422.4,222,422.4z"/>
<path style="fill:#545454;" d="M263.4,416.8c-0.5-2.6-1.6-7.7-1.6-9.3c0,0-3.3,1.5-6.3,1.8s-6-1.2-6-1.2s-31.7,6-31.2,9.7
	C218.4,419.9,264.1,420.2,263.4,416.8z"/>
<g>
	<path style="fill:#EDA87A;" d="M248.2,287.3c-3.8,0-1.8-15.8-2.8-20.6l2.6-5.7c-2.3-34.7,1.7-49.8,1.7-49.8
		c-2.3-20.7-4.8-60.6-3.4-68.4c1.3-7.8,20.6-6.9,21.2,1.1c0.6,7.9,0.3,15,0.2,22.9c0,7.9-2.2,37.4-2.9,44.3
		c-0.1,0.9-5.5,49.9-5.5,49.9s0.1,2,1.2,5.3c1.6,4.6,1.2,11.5-0.5,15.2C258.4,284.7,252,287.3,248.2,287.3z"/>
	<path style="fill:#EDA87A;" d="M247,271.5c0,0,0.4,5-2.2,5.5c-2.2,0.4-3,0.3,0.6-10.3C245.4,266.7,246.9,266.8,247,271.5z"/>
</g>
<g>
	<path style="fill:#3A3A3A;" d="M252.7,423.4c0,0.2,0.1,0.3,0.2,0.3h1c0.1,0,0.2-0.1,0.2-0.3l0.2-1.3c0-0.2-0.1-0.3-0.3-0.3h-1.3
		c-0.2,0-0.3,0.1-0.3,0.3L252.7,423.4z"/>
	<path style="fill:#3A3A3A;" d="M255.8,423.2c0,0.2,0.1,0.3,0.2,0.3h1c0.1,0,0.2-0.1,0.2-0.3l0.2-1.3c0-0.2-0.1-0.3-0.3-0.3h-1.3
		c-0.2,0-0.3,0.1-0.3,0.3L255.8,423.2z"/>
	<path style="fill:#3A3A3A;" d="M231.8,423.5c0,0.2,0.1,0.3,0.2,0.3h1c0.1,0,0.2-0.1,0.2-0.3l0.3-1.3c0-0.2-0.1-0.3-0.3-0.3h-1.3
		c-0.2,0-0.3,0.1-0.3,0.3L231.8,423.5z"/>
	<path style="fill:#3A3A3A;" d="M235.3,423.4c0,0.2,0.1,0.3,0.2,0.3h1c0.1,0,0.2-0.1,0.2-0.3l0.2-1.3c0-0.2-0.1-0.3-0.3-0.3h-1.3
		c-0.2,0-0.3,0.1-0.3,0.3L235.3,423.4z"/>
	<path style="fill:#3A3A3A;" d="M225.2,422.7c0,0.2,0,0.3,0.2,0.3l1,0.2c0.1,0,0.3-0.1,0.3-0.3l0.5-1.2c0-0.2-0.1-0.3-0.2-0.4
		l-1.3-0.2c-0.2,0-0.3,0.1-0.4,0.2L225.2,422.7z"/>
	<path style="fill:#3A3A3A;" d="M228.2,423.3c0,0.2,0.1,0.3,0.2,0.3l1,0.1c0.1,0,0.2-0.1,0.3-0.3l0.4-1.3c0-0.2-0.1-0.3-0.3-0.3
		l-1.3-0.2c-0.2,0-0.3,0.1-0.3,0.3L228.2,423.3z"/>
</g>
<polygon style="fill:#D19205;" points="243,170.3 269.7,170.3 269.7,138.2 243,141.7 "/>
<polygon style="fill:#DD9F12;" points="244.3,168.1 271.2,168.1 271.2,138.2 257.2,136.2 244.3,138.2 "/>
<g>
	<path style="fill:#FFFFFF;" d="M249.5,419.2c-0.7,0-1.4,0-2,0l-3.7-6.3l1.5-0.7L249.5,419.2z"/>
	<path style="fill:#FFFFFF;" d="M246.8,419.2c-0.5,0-0.8,0-0.8,0c-0.3,0-0.7,0.1-1.1,0.1l-3.1-5.4l1.5-0.7L246.8,419.2z"/>
	<path style="fill:#FFFFFF;" d="M244.3,419.3c-0.6,0-1.2,0-1.9,0.1l-2.5-4.5l1.5-0.7L244.3,419.3z"/>
</g>
<g>
</g>
<g>
</g>
<g>
</g>
<g>
</g>
<g>
</g>
<g>
</g>
<g>
</g>
<g>
</g>
<g>
</g>
<g>
</g>
<g>
</g>
<g>
</g>
<g>
</g>
<g>
</g>
<g>
</g>
</svg>
