<svg id="417f5a88-f4c6-4f65-b75b-931b01ec53c2" data-name="Layer 1" xmlns="http://www.w3.org/2000/svg" viewBox="0 0 367 371"><defs><style>.f1f42627-469c-4196-baa0-393f0f3bccf3{fill:#909090;}.\31 db8b987-64fd-4f0b-a648-3c8df202d4f6{fill:#717171;}.\38 e4416fa-d6db-400b-857a-4c2bd1cbbe66{fill:#454545;}.c8d48f20-99ce-4b19-bb5a-fab3e0497dec{fill:#3a3a3a;}.\30 7ae76f4-70a8-4092-8596-cf15aec704d1{fill:#efefef;}</style></defs><title>club</title><g id="e613139d-b64c-411b-a950-c8291329d28f" data-name="Strategy"><g id="d1d96358-9c66-4455-b629-e55d0cca52db" data-name="strategy"><path class="f1f42627-469c-4196-baa0-393f0f3bccf3" d="M297.8,462.1A6.73,6.73,0,0,0,304,467h46a3.73,3.73,0,0,0,3.8-4.9L306.2,268.8a6.73,6.73,0,0,0-6.2-4.9H254a3.73,3.73,0,0,0-3.8,4.9Z" transform="translate(-72 -96)"/><path class="f1f42627-469c-4196-baa0-393f0f3bccf3" d="M214.2,462.1A6.73,6.73,0,0,1,208,467H162a3.73,3.73,0,0,1-3.8-4.9l47.6-193.3a6.73,6.73,0,0,1,6.2-4.9h46a3.73,3.73,0,0,1,3.8,4.9Z" transform="translate(-72 -96)"/><polygon class="1db8b987-64fd-4f0b-a648-3c8df202d4f6" points="177 168 135 168 109.4 272 165.4 272 184 196.4 177 168"/><polygon class="1db8b987-64fd-4f0b-a648-3c8df202d4f6" points="233 168 191 168 184 196.4 202.6 272 258.6 272 233 168"/><path class="1db8b987-64fd-4f0b-a648-3c8df202d4f6" d="M190,447a1.27,1.27,0,0,1-.6-0.1,3.13,3.13,0,0,1-2.3-3.6l10-45.5a3,3,0,0,1,5.9,1.3l-10,45.5A3.19,3.19,0,0,1,190,447Z" transform="translate(-72 -96)"/><path class="1db8b987-64fd-4f0b-a648-3c8df202d4f6" d="M204,457a1.7,1.7,0,0,1-.7-0.1,3,3,0,0,1-2.2-3.6l34-133a3,3,0,1,1,5.8,1.4l-34,133A3,3,0,0,1,204,457Z" transform="translate(-72 -96)"/><path class="1db8b987-64fd-4f0b-a648-3c8df202d4f6" d="M178,431.7a2,2,0,0,1-.7-0.1,3,3,0,0,1-2.2-3.6l14-60.7a3,3,0,1,1,5.8,1.4l-14,60.7A3,3,0,0,1,178,431.7Z" transform="translate(-72 -96)"/><path class="1db8b987-64fd-4f0b-a648-3c8df202d4f6" d="M322,447a3,3,0,0,1-2.9-2.4l-10-45.5a3,3,0,0,1,5.9-1.3l10,45.5a3,3,0,0,1-2.3,3.6A2,2,0,0,1,322,447Z" transform="translate(-72 -96)"/><path class="1db8b987-64fd-4f0b-a648-3c8df202d4f6" d="M308,457a3,3,0,0,1-2.9-2.3l-34-133a3,3,0,1,1,5.8-1.4l34,133a3,3,0,0,1-2.2,3.6A1.7,1.7,0,0,1,308,457Z" transform="translate(-72 -96)"/><path class="1db8b987-64fd-4f0b-a648-3c8df202d4f6" d="M334,431.7a2.9,2.9,0,0,1-2.9-2.3l-14-60.7a3,3,0,1,1,5.8-1.4l14,60.7a3,3,0,0,1-2.2,3.6C334.4,431.6,334.2,431.7,334,431.7Z" transform="translate(-72 -96)"/><rect class="8e4416fa-d6db-400b-857a-4c2bd1cbbe66" x="8" width="352" height="261"/><path class="c8d48f20-99ce-4b19-bb5a-fab3e0497dec" d="M439,101a5,5,0,0,1-5,5H77a5,5,0,0,1-5-5h0a5,5,0,0,1,5-5H434a5,5,0,0,1,5,5h0Z" transform="translate(-72 -96)"/><path class="c8d48f20-99ce-4b19-bb5a-fab3e0497dec" d="M439,352a5,5,0,0,1-5,5H77a5,5,0,0,1-5-5h0a5,5,0,0,1,5-5H434a5,5,0,0,1,5,5h0Z" transform="translate(-72 -96)"/><circle class="07ae76f4-70a8-4092-8596-cf15aec704d1" cx="56" cy="73.7" r="12"/><circle class="07ae76f4-70a8-4092-8596-cf15aec704d1" cx="77" cy="206.7" r="12"/><circle class="07ae76f4-70a8-4092-8596-cf15aec704d1" cx="89" cy="130.7" r="12"/><path class="07ae76f4-70a8-4092-8596-cf15aec704d1" d="M125.3,292.3a2.2,2.2,0,0,1-1.5-.6c-26-27.8-28.3-54.1-25.7-71.3,2.9-18.6,11.8-30.5,12.2-31a2,2,0,0,1,3.2,2.4A70.18,70.18,0,0,0,102,221.2c-3.6,23.6,4.7,46.4,24.7,67.7a1.93,1.93,0,0,1-.1,2.8A1.37,1.37,0,0,1,125.3,292.3Z" transform="translate(-72 -96)"/><path class="07ae76f4-70a8-4092-8596-cf15aec704d1" d="M128,295.7h-0.4l-19-3.8a2,2,0,0,1,.8-4l16.6,3.4V274a2,2,0,0,1,4,0v19.7a2,2,0,0,1-.7,1.5A2.11,2.11,0,0,1,128,295.7Z" transform="translate(-72 -96)"/><path class="07ae76f4-70a8-4092-8596-cf15aec704d1" d="M258,199a2,2,0,0,1-1.4-.6l-20-20a2,2,0,0,1,2.8-2.8l20,20a1.93,1.93,0,0,1,0,2.8A2,2,0,0,1,258,199Z" transform="translate(-72 -96)"/><path class="07ae76f4-70a8-4092-8596-cf15aec704d1" d="M238,199a2,2,0,0,1-1.4-.6,1.93,1.93,0,0,1,0-2.8l20-20a2,2,0,0,1,2.8,2.8l-20,20A2,2,0,0,1,238,199Z" transform="translate(-72 -96)"/><path class="07ae76f4-70a8-4092-8596-cf15aec704d1" d="M318,268a2,2,0,0,1-1.4-.6l-20-20a2,2,0,0,1,2.8-2.8l20,20a1.93,1.93,0,0,1,0,2.8A2,2,0,0,1,318,268Z" transform="translate(-72 -96)"/><path class="07ae76f4-70a8-4092-8596-cf15aec704d1" d="M298,268a2,2,0,0,1-1.4-.6,1.93,1.93,0,0,1,0-2.8l20-20a2,2,0,1,1,2.8,2.8l-20,20A2,2,0,0,1,298,268Z" transform="translate(-72 -96)"/><path class="07ae76f4-70a8-4092-8596-cf15aec704d1" d="M377,213a2,2,0,0,1-1.4-.6l-20-20a2,2,0,0,1,2.8-2.8l20,20a1.93,1.93,0,0,1,0,2.8A2,2,0,0,1,377,213Z" transform="translate(-72 -96)"/><path class="07ae76f4-70a8-4092-8596-cf15aec704d1" d="M357,213a2,2,0,0,1-1.4-.6,1.93,1.93,0,0,1,0-2.8l20-20a2,2,0,0,1,2.8,2.8l-20,20A2,2,0,0,1,357,213Z" transform="translate(-72 -96)"/><circle class="07ae76f4-70a8-4092-8596-cf15aec704d1" cx="293" cy="209.7" r="12"/><path class="07ae76f4-70a8-4092-8596-cf15aec704d1" d="M335.5,255a1.93,1.93,0,0,1-1.9-1.5,1.86,1.86,0,0,1,1.4-2.4h0c0.8-.2,19.9-5.6,23-24.9a2,2,0,0,1,4,.6c-3.5,21.9-25,27.9-25.9,28.1A1.27,1.27,0,0,1,335.5,255Z" transform="translate(-72 -96)"/><path class="07ae76f4-70a8-4092-8596-cf15aec704d1" d="M365,242.5a2.05,2.05,0,0,1-1.9-1.3L358.7,229l-13.2,4a2,2,0,0,1-1.2-3.8l15-4.5a2.06,2.06,0,0,1,2.5,1.2l5,14a2.08,2.08,0,0,1-1.2,2.6H365Z" transform="translate(-72 -96)"/><path class="07ae76f4-70a8-4092-8596-cf15aec704d1" d="M387.3,292.7a2.28,2.28,0,0,1-1.1-.3,2.05,2.05,0,0,1-.6-2.8,149.85,149.85,0,0,0,16.2-40c5.4-21.8,8.3-54.7-8.9-87.7a2,2,0,1,1,3.5-1.9c17.9,34.1,14.9,68.1,9.3,90.6-6.1,24.3-16.2,40.4-16.7,41.1A2.06,2.06,0,0,1,387.3,292.7Z" transform="translate(-72 -96)"/><path class="07ae76f4-70a8-4092-8596-cf15aec704d1" d="M387.3,179a1.27,1.27,0,0,1-.6-0.1,1.94,1.94,0,0,1-1.3-2.5l6-19.3a1.89,1.89,0,0,1,1.1-1.2,2.48,2.48,0,0,1,1.7,0l20,9.7a2,2,0,1,1-1.8,3.6l-17.9-8.7-5.3,17.1A1.84,1.84,0,0,1,387.3,179Z" transform="translate(-72 -96)"/><circle class="07ae76f4-70a8-4092-8596-cf15aec704d1" cx="230" cy="52.7" r="12"/><circle class="07ae76f4-70a8-4092-8596-cf15aec704d1" cx="149" cy="181.7" r="12"/><path class="07ae76f4-70a8-4092-8596-cf15aec704d1" d="M200,266a2.2,2.2,0,0,1-1.5-.6L175,240a1.93,1.93,0,0,1,.1-2.8,2,2,0,0,1,2.8.1l23.5,25.3a1.93,1.93,0,0,1-.1,2.8A1.61,1.61,0,0,1,200,266Z" transform="translate(-72 -96)"/><path class="07ae76f4-70a8-4092-8596-cf15aec704d1" d="M204,268h-0.2l-19-2.2a2,2,0,1,1,.4-4l16.1,1.8L197,247.4a2,2,0,0,1,3.8-1l5,19a2,2,0,0,1-.4,1.8A1.42,1.42,0,0,1,204,268Z" transform="translate(-72 -96)"/></g></g></svg>