<svg id="f647e783-76e7-4145-98cb-5f2d0d59da02" data-name="Calque 2" xmlns="http://www.w3.org/2000/svg" viewBox="0 0 303.49 361.5"><defs><style>.\39 1df0778-07ee-4b4a-bda3-0e2182646d1b{fill:#d89a00;}.\30 f565fa3-953c-48f1-aed0-6f0ded9e7278{fill:#f2b408;}.\35 afe3d35-2c46-4d92-af82-80a1c173e99d{fill:#f7bb26;}.\34 fbbb66a-5019-4888-8334-562382d87931{fill:#774c2b;}.\34 2058171-804e-4e96-9555-8eb096f1f751{fill:#825434;}.\32 d22e0fc-67f6-4ac7-9e3c-99802d3a45cb{fill:#5b361d;}.\39 1b821de-63a6-4f1c-a9ab-3c7b78b88f3f{fill:#633f26;}.a3307b2f-827b-4aeb-a71e-70dba0461921{fill:#c48f2c;}.\32 ca739de-7f1f-4947-8eb7-cffb8f0a9ce4{fill:#d1983d;}</style></defs><title>cup-fcl</title><path class="91df0778-07ee-4b4a-bda3-0e2182646d1b" d="M330.1,27.6A76,76,0,0,1,343,15.8a64.39,64.39,0,0,1,15.9-8.6,50.08,50.08,0,0,1,9.4-2.5,35.56,35.56,0,0,1,10.3-.1,30.28,30.28,0,0,1,10.5,3.5,31.8,31.8,0,0,1,8.5,7,33.21,33.21,0,0,1,3.2,4.2,23.6,23.6,0,0,1,1.3,2.3c0.1,0.2.4,0.8,0.6,1.1l0.6,1.2a36,36,0,0,1,3,10.3,40.64,40.64,0,0,1-2.6,20.1,76.08,76.08,0,0,1-8.6,16.5,148.38,148.38,0,0,1-11,14.1c-15.6,17.6-33.9,31.5-52.6,44.4A565,565,0,0,1,273,163.9l-0.7-1.3q28.35-18.3,54.9-39.3c8.7-7,17.3-14.3,25.4-21.9a222.91,222.91,0,0,0,22.5-24.1,118.13,118.13,0,0,0,9-13.2,59.13,59.13,0,0,0,5.8-14,31.43,31.43,0,0,0,.7-13.3,24.69,24.69,0,0,0-1.9-6l-0.3-.7-0.3-.7a6.38,6.38,0,0,0-.8-1.4c-0.6-.9-1.1-1.8-1.8-2.7a17.57,17.57,0,0,0-9.5-6.7,32.56,32.56,0,0,0-13.9-.3,83.67,83.67,0,0,0-15.4,4.2A159.17,159.17,0,0,0,331.2,29Z" transform="translate(-103.1)"/><path class="91df0778-07ee-4b4a-bda3-0e2182646d1b" d="M179.6,27.6a76,76,0,0,0-12.9-11.8,64.39,64.39,0,0,0-15.9-8.6,50.08,50.08,0,0,0-9.4-2.5,35.56,35.56,0,0,0-10.3-.1,30.28,30.28,0,0,0-10.5,3.5,31.8,31.8,0,0,0-8.5,7,33.21,33.21,0,0,0-3.2,4.2,23.6,23.6,0,0,0-1.3,2.3c-0.1.2-.4,0.8-0.6,1.1l-0.6,1.2a36,36,0,0,0-3,10.3A40.64,40.64,0,0,0,106,54.3a76.08,76.08,0,0,0,8.6,16.5,148.38,148.38,0,0,0,11,14.1c15.6,17.6,33.9,31.5,52.6,44.4a556.12,556.12,0,0,0,58.6,34.6l0.7-1.3q-28.35-18.3-54.8-39.3c-8.7-7-17.3-14.3-25.4-21.9a222.91,222.91,0,0,1-22.5-24.1,118.13,118.13,0,0,1-9-13.2,59.13,59.13,0,0,1-5.8-14,31.43,31.43,0,0,1-.7-13.3,29.77,29.77,0,0,1,1.8-6l0.3-.7,0.3-.7a6.38,6.38,0,0,1,.8-1.4c0.6-.9,1.1-1.8,1.8-2.7a17.7,17.7,0,0,1,9.4-6.7,32.56,32.56,0,0,1,13.9-.3,80.59,80.59,0,0,1,15.3,4.2A159.17,159.17,0,0,1,178.4,29Z" transform="translate(-103.1)"/><path class="0f565fa3-953c-48f1-aed0-6f0ded9e7278" d="M323.8,105.8L346.4,10C317.3,0,287.9,0,254,0s-63.3,0-92.4,10l22.6,95.8s10.3,48,43.9,76c0,0,15.1,28.8,10.3,47.2l-11,21.3,4.1,6.9s-10.3,22.6-31.5,33.6v7.5s15.1,9,52.6,9.5h3.1c37.5-.5,52.6-9.5,52.6-9.5v-7.6c-21.3-11-31.5-33.6-31.5-33.6l4.1-6.9L270,229.1c-4.8-18.5,10.3-47.2,10.3-47.2C313.6,153.8,323.8,105.8,323.8,105.8Z" transform="translate(-103.1)"/><path class="5afe3d35-2c46-4d92-af82-80a1c173e99d" d="M254.8,0c-33.9,0-64.1,0-93.3,10l22.6,95.8s10.3,48,43.9,76c0,0,15.1,28.8,10.3,47.2l-11,21.3,4.1,6.9s-10.3,22.6-31.5,33.6v7.5s15.1,9,52.6,9.5h2.4V0h-0.1Z" transform="translate(-103.1)"/><polygon class="4fbbb66a-5019-4888-8334-562382d87931" points="249.2 338.1 54.3 338.1 65 299.4 238.4 299.4 249.2 338.1"/><polygon class="42058171-804e-4e96-9555-8eb096f1f751" points="151.7 338.1 54.3 338.1 65 299.4 151.7 299.4 151.7 338.1"/><rect class="2d22e0fc-67f6-4ac7-9e3c-99802d3a45cb" x="54.3" y="338.1" width="194.9" height="23.4"/><rect class="91b821de-63a6-4f1c-a9ab-3c7b78b88f3f" x="54.3" y="338.1" width="97.6" height="23.4"/><polygon class="4fbbb66a-5019-4888-8334-562382d87931" points="231.9 316.8 71.6 316.8 80.5 285 223 285 231.9 316.8"/><polygon class="42058171-804e-4e96-9555-8eb096f1f751" points="151.7 316.8 71.6 316.8 80.5 285 151.7 285 151.7 316.8"/><rect class="2d22e0fc-67f6-4ac7-9e3c-99802d3a45cb" x="71.6" y="316.8" width="160.2" height="10.4"/><rect class="91b821de-63a6-4f1c-a9ab-3c7b78b88f3f" x="71.6" y="316.8" width="80.1" height="10.4"/><path class="a3307b2f-827b-4aeb-a71e-70dba0461921" d="M200,290.7v7.5s15.1,9,52.6,9.5h3.1c37.5-.5,52.6-9.5,52.6-9.5v-7.5s-18,8-53.1,8S200,290.7,200,290.7Z" transform="translate(-103.1)"/><path class="2ca739de-7f1f-4947-8eb7-cffb8f0a9ce4" d="M200,290.7v7.5s15.1,9,52.6,9.5H255c-0.1,0,0-9.1,0-9.1C219.7,298.7,200,290.7,200,290.7Z" transform="translate(-103.1)"/></svg>