<?xml version="1.0" encoding="utf-8"?>
<!-- Generator: Adobe Illustrator 19.2.1, SVG Export Plug-In . SVG Version: 6.00 Build 0)  -->
<svg version="1.1" xmlns="http://www.w3.org/2000/svg" xmlns:xlink="http://www.w3.org/1999/xlink" x="0px" y="0px"
	 viewBox="0 0 512 512" style="enable-background:new 0 0 512 512;" xml:space="preserve">
<style type="text/css">
	.st0{display:none;}
	.st1{display:inline;fill:#65A844;}
	.st2{display:inline;}
	.st3{fill:#3A3A3A;}
	.st4{display:inline;fill:#3A3A3A;}
	.st5{display:inline;fill:#545454;}
	.st6{fill:#FFFFFF;}
	.st7{display:inline;fill:#232323;}
	.st8{fill:#F4F4F4;}
	.st9{fill:#232323;}
	.st10{display:inline;fill:#F4F4F4;}
	.st11{fill:#E0E1E2;}
	.st12{display:inline;fill:#434444;}
	.st13{display:inline;fill:#206982;}
	.st14{fill:#D89A00;}
	.st15{display:inline;fill:#F2B408;}
	.st16{display:inline;fill:#F7BB26;}
	.st17{display:inline;fill:#774C2B;}
	.st18{display:inline;fill:#825434;}
	.st19{display:inline;fill:#5B361D;}
	.st20{display:inline;fill:#633F26;}
	.st21{display:inline;fill:#C48F2C;}
	.st22{display:inline;fill:#D1983D;}
	.st23{fill:#65A844;}
	.st24{fill:#D0E8F9;}
	.st25{fill:#C8D4DB;}
	.st26{fill:#ECF0F1;}
	.st27{fill:#38454F;}
	.st28{fill:#3D3C3C;}
	.st29{fill:#333333;}
	.st30{fill:#2B2B2B;}
	.st31{fill:#EFE020;}
	.st32{fill:#D8C221;}
	.st33{fill:#E8D523;}
	.st34{fill:#E0CE20;}
	.st35{fill:#EAD434;}
	.st36{fill:#DDC328;}
	.st37{fill:#D1BF1C;}
	.st38{fill:#A08F15;}
	.st39{fill:#E5AD88;}
	.st40{fill:#EA4242;}
</style>
<g id="Layer_1" class="st0">
	<path class="st1" d="M1,256.4h511.1c0,141.1-114.4,255.6-255.6,255.6S1,397.6,1,256.4z"/>
	<g class="st2">
		<path class="st3" d="M138.2,318.3c0,1.8-1,3.1-2.4,3.1h-10.3c-1.3,0-2.4-1.4-2.4-3.1l-2.3-13.2c0-1.8,1.4-3.1,3.1-3.1h13.4
			c1.8,0,3.1,1.4,3.1,3.1L138.2,318.3z"/>
		<path class="st3" d="M107,316.2c0,1.8-1,3.1-2.4,3.1H94.3c-1.3,0-2.4-1.4-2.4-3.1l-2.3-13.2c0-1.8,1.4-3.1,3.1-3.1h13.4
			c1.8,0,3.1,1.4,3.1,3.1L107,316.2z"/>
		<path class="st3" d="M369.3,318.7c0.1,1.8-0.9,3.2-2.3,3.2l-10.3,0.4c-1.3,0-2.5-1.3-2.5-3.1l-2.8-13.1c-0.1-1.8,1.2-3.2,3-3.3
			l13.4-0.5c1.8-0.1,3.2,1.2,3.2,3L369.3,318.7z"/>
		<path class="st3" d="M333.8,318.3c0,1.8-1,3.1-2.4,3.1h-10.3c-1.3,0-2.4-1.4-2.4-3.1l-2.3-13.2c0-1.8,1.4-3.1,3.1-3.1H333
			c1.8,0,3.1,1.4,3.1,3.1L333.8,318.3z"/>
		<path class="st3" d="M436.2,307.2c0.3,1.8-0.5,3.3-1.8,3.5l-10.1,2c-1.3,0.2-2.6-0.9-3-2.7l-4.6-12.6c-0.3-1.6,0.8-3.3,2.5-3.7
			l13.2-2.5c1.6-0.3,3.3,0.8,3.7,2.5L436.2,307.2z"/>
		<path class="st3" d="M405.7,313.8c0.2,1.8-0.7,3.2-2.1,3.4l-10.2,1.2c-1.3,0.2-2.6-1.1-2.8-2.8l-3.8-12.9c-0.2-1.8,1-3.3,2.8-3.5
			l13.3-1.6c1.8-0.2,3.3,1,3.5,2.8L405.7,313.8z"/>
	</g>
	<path class="st4" d="M233.5,190.4c-3.4,4.7-32.8,39.7-55.5,44.3c-23.9,4.9-69.5-4.3-75.2-6.7c-5.7-2.3-19.5-9.9-20.5-14.6
		c-0.5-2.4,1.8-3.3,3.2-3.4c0.2,0,0.3,0,0.5,0c0,0,31.9,7.1,57.9,5.9c0,0,63.8-6.5,86.6-26.3C230.7,189.7,236.3,187.7,233.5,190.4z"
		/>
	<path class="st5" d="M75.2,221c0,0-5.5-10.7,10.4-10.9c-1.4,0.1-3.7,1-3.2,3.4c1,4.7,14.8,12.4,20.5,14.6
		c5.7,2.3,51.2,11.5,75.2,6.7c22.8-4.7,48.5-39.7,51.9-44.3c2.7-2.7,7.9-4.8,15.2-8.7c7.3-3.8,16.5-3.6,16.5-3.6l140.1,64.5
		c0,0,10.6,4.7,26.6,4.1c0,0,40.8-1.2,50.3,20.4c0,0-15,23-61.9,31.7c0,0-348.8,29-350.9-6.9c-0.1-2.5-0.3-5.2-0.3-8
		C65.4,283.9,60.1,244.9,75.2,221z"/>
	<g class="st2">
		<path class="st6" d="M217.2,295.8c7.5,0.1,14.6,0.2,20.5,0.2l39.7-65.8l-15.3-7.9L217.2,295.8z"/>
		<path class="st6" d="M244.8,296.3c5.3,0.1,8.5,0.1,8.5,0.1c3.3,0.4,7.1,0.8,11.3,1.1L298,241l-15.3-7.9L244.8,296.3z"/>
		<path class="st6" d="M271.4,297.9c6.2,0.4,13.1,0.6,20.1,0.8l27-47.2l-15.3-7.9L271.4,297.9z"/>
	</g>
	<path class="st7" d="M285.8,190.6l-26.8,5.9l0,0c0.6-0.1,1.2-0.4,1.8-0.9l9-8.8l7.4-1.6l9,4.1L285.8,190.6z"/>
	<g class="st2">
		<path class="st8" d="M281.8,210.1c0,0.1,0,0.2,0,0.3C281.8,210.4,281.8,210.3,281.8,210.1z"/>
		<path class="st8" d="M286.3,213.4h0.1C286.3,213.4,286.3,213.4,286.3,213.4z"/>
		<path class="st8" d="M283.6,213.1c0.1,0,0.1,0.1,0.2,0.1C283.8,213.2,283.7,213.2,283.6,213.1z"/>
		<path class="st8" d="M281.9,209.4c0,0.1,0,0.3,0,0.4C281.8,209.6,281.8,209.5,281.9,209.4z"/>
		<path class="st8" d="M284.4,213.4c0.1,0,0.1,0,0.2,0.1C284.5,213.5,284.4,213.5,284.4,213.4z"/>
		<path class="st8" d="M282.1,211.5c0,0.1,0.1,0.2,0.1,0.2C282.1,211.6,282.1,211.5,282.1,211.5z"/>
		<path class="st8" d="M282.9,212.7c0.1,0.1,0.1,0.1,0.2,0.2C283,212.8,283,212.7,282.9,212.7z"/>
		<path class="st8" d="M281.9,210.8c0,0.1,0.1,0.2,0.1,0.3C281.9,211,281.9,210.9,281.9,210.8z"/>
		<path class="st8" d="M282.4,212.1L282.4,212.1l0.1,0.1L282.4,212.1z"/>
	</g>
	<g class="st2">
		<path class="st9" d="M305,200.8L287.4,213h-0.1c0.7-0.5,1.3-1.2,1.5-2.3l1.9-8.8l9.3-6.4l5.4,2.5L305,200.8z"/>
		<path class="st9" d="M327.1,212.5l-18.8,13.9c0,0,0,0-0.1,0c0.8-0.6,1.3-1.4,1.4-2.6l0.8-8l12.9-9.5l4.3,2L327.1,212.5z"/>
	</g>
	<g class="st2">
		<path class="st8" d="M302.7,224.2c0,0.1,0,0.2,0.1,0.3C302.7,224.5,302.7,224.4,302.7,224.2z"/>
		<path class="st8" d="M304.6,226.7c0.1,0,0.2,0.1,0.2,0.1C304.7,226.8,304.7,226.8,304.6,226.7z"/>
		<path class="st8" d="M302.9,224.9c0,0.1,0.1,0.2,0.1,0.3C302.9,225.1,302.9,225,302.9,224.9z"/>
		<path class="st8" d="M307.1,227c0.1,0,0.1,0,0.2,0C307.2,226.9,307.2,226.9,307.1,227z"/>
		<path class="st8" d="M306.2,227.1L306.2,227.1L306.2,227.1z"/>
		<path class="st8" d="M302.6,223.4c0,0.1,0,0.3,0,0.4C302.6,223.7,302.6,223.6,302.6,223.4z"/>
		<path class="st8" d="M303.3,225.7c0-0.1-0.1-0.1-0.1-0.2C303.2,225.6,303.3,225.7,303.3,225.7
			C303.3,225.8,303.3,225.7,303.3,225.7z"/>
		<path class="st8" d="M304,226.3C304,226.3,304,226.4,304,226.3C304,226.4,304,226.3,304,226.3z"/>
		<path class="st8" d="M305.3,227c0.1,0,0.2,0,0.3,0.1C305.5,227,305.4,227,305.3,227z"/>
		<path class="st8" d="M324.3,233.8c0,0.1,0.1,0.2,0.1,0.3C324.4,234,324.3,233.9,324.3,233.8z"/>
	</g>
	<path class="st7" d="M349.4,221.5l-19.7,14.1h-0.1c0.8-0.5,1.3-1.3,1.5-2.4l1.2-8.3l12.2-8.8l4.7,2.2L349.4,221.5z"/>
	<g class="st2">
		<path class="st8" d="M324.8,234.8c0-0.1-0.1-0.1-0.1-0.2C324.8,234.7,324.8,234.8,324.8,234.8L324.8,234.8z"/>
		<path class="st8" d="M325.4,235.4c0.1,0.1,0.1,0.1,0.2,0.1C325.5,235.5,325.4,235.4,325.4,235.4z"/>
		<path class="st8" d="M327.6,236.2L327.6,236.2L327.6,236.2z"/>
		<path class="st8" d="M326,235.8c0.1,0,0.2,0.1,0.3,0.1C326.2,235.9,326.1,235.9,326,235.8z"/>
		<path class="st8" d="M326.7,236.1c0.1,0,0.2,0.1,0.3,0.1C326.9,236.1,326.8,236.1,326.7,236.1z"/>
		<path class="st8" d="M328.7,236.1c0.1,0,0.1,0,0.2,0C328.8,236.1,328.7,236.1,328.7,236.1z"/>
		<path class="st8" d="M324.1,232.4c0,0.1,0,0.3,0,0.4C324.1,232.7,324.1,232.6,324.1,232.4z"/>
		<path class="st8" d="M324.1,233.2c0,0.1,0,0.2,0.1,0.3C324.2,233.4,324.2,233.3,324.1,233.2z"/>
	</g>
	<path class="st7" d="M376.2,231.9l-22.5,16.6l0,0c0.9-0.7,1.4-1.8,1.4-3l-2.3-5.8l16.9-11.9l6.2,2.9L376.2,231.9z"/>
	<g class="st2">
		<path class="st8" d="M354.8,250c0.1,0,0.1,0,0.2-0.1C354.9,250,354.9,250,354.8,250z"/>
		<path class="st8" d="M350.3,246.8c0,0.2,0,0.3,0.1,0.5C350.3,247.1,350.3,246.9,350.3,246.8z"/>
		<path class="st8" d="M352.2,249.8c0.1,0,0.2,0.1,0.2,0.1C352.3,249.8,352.2,249.8,352.2,249.8z"/>
		<path class="st8" d="M353.8,250.2L353.8,250.2L353.8,250.2z"/>
		<path class="st8" d="M351.5,249.3c0.1,0.1,0.1,0.1,0.2,0.2C351.6,249.4,351.5,249.4,351.5,249.3z"/>
		<path class="st8" d="M352.9,250.1c0.1,0,0.1,0,0.2,0.1C353,250.1,353,250.1,352.9,250.1z"/>
		<path class="st8" d="M350.4,247.5v0.1C350.4,247.5,350.4,247.5,350.4,247.5z"/>
		<path class="st8" d="M350.6,248.2c0,0,0,0.1,0.1,0.1C350.6,248.3,350.6,248.2,350.6,248.2z"/>
		<path class="st8" d="M351,248.8L351,248.8L351,248.8L351,248.8z"/>
	</g>
	<path class="st7" d="M382.4,260.3c0.4-0.6,0.5-1.4,0.4-2.3l-1.4-10.9l6-11.2l6.5,3L382.4,260.3
		C382.5,260.3,382.4,260.3,382.4,260.3z"/>
	<path class="st10" d="M382.4,262.3c0,0.1,0,0.2,0.1,0.3C382.4,262.5,382.4,262.4,382.4,262.3z"/>
	<path class="st4" d="M259.8,195c0-0.1,0-0.2,0-0.3s0.1-0.2,0.1-0.3c0-0.1,0.1-0.2,0.1-0.3s0.1-0.2,0.2-0.3s0.1-0.2,0.2-0.3
		c0.1-0.1,0.1-0.2,0.2-0.2c0.1-0.1,0.2-0.2,0.2-0.3c0,0,0,0,0-0.1l10.5-10.2l6.9,3.2l-3.5,3.4l-9,8.8c-0.5,0.5-1.1,0.8-1.8,0.9
		c-0.2,0-0.5,0.1-0.7,0.1s-0.4,0-0.6-0.1c-0.1,0-0.1,0-0.2-0.1c-0.1,0-0.3-0.1-0.4-0.1s-0.2-0.1-0.2-0.1c-0.1-0.1-0.2-0.1-0.3-0.2
		c-0.1,0-0.1-0.1-0.2-0.1c-0.1-0.1-0.2-0.2-0.3-0.3c-0.1,0-0.1-0.1-0.1-0.1c-0.1-0.2-0.3-0.3-0.4-0.5l0,0c-0.1-0.2-0.2-0.4-0.3-0.6
		c0-0.1,0-0.2-0.1-0.2c0-0.1-0.1-0.2-0.1-0.4c0-0.1,0-0.3,0-0.4c0-0.1,0-0.2,0-0.3C259.8,195.2,259.8,195.1,259.8,195z"/>
	<g class="st2">
		<path class="st11" d="M282.5,212.2c0.1,0.2,0.3,0.3,0.4,0.4C282.7,212.5,282.6,212.4,282.5,212.2z"/>
		<path class="st11" d="M284.6,213.5L284.6,213.5c0.2,0,0.5,0.1,0.7,0.1C285.1,213.7,284.9,213.7,284.6,213.5z"/>
		<path class="st11" d="M283.1,212.8c0.1,0.1,0.3,0.2,0.4,0.3C283.5,213,283.2,212.9,283.1,212.8z"/>
		<path class="st11" d="M283.8,213.2c0.2,0.1,0.3,0.1,0.5,0.2C284.2,213.4,284,213.3,283.8,213.2z"/>
		<path class="st11" d="M281.8,210.5c0,0.1,0,0.2,0,0.3C281.8,210.7,281.8,210.6,281.8,210.5z"/>
		<path class="st11" d="M281.8,209.8c0,0.1,0,0.2,0,0.3C281.8,210,281.8,209.9,281.8,209.8z"/>
		<path class="st11" d="M285.3,213.7c0.3,0,0.6-0.1,0.9-0.1C286,213.5,285.6,213.7,285.3,213.7z"/>
		<path class="st11" d="M286.4,213.4c0.3-0.1,0.6-0.2,0.8-0.4C287.1,213.2,286.8,213.3,286.4,213.4z"/>
		<path class="st11" d="M282.2,211.7c0.1,0.1,0.1,0.2,0.2,0.4C282.3,211.9,282.2,211.8,282.2,211.7z"/>
		<path class="st11" d="M281.9,211.1c0,0.1,0.1,0.2,0.1,0.4C282,211.4,282,211.2,281.9,211.1z"/>
	</g>
	<path class="st4" d="M287.9,190.2l-1.8-0.8l-0.3,1.2l-3.9,18.7c0,0,0,0,0,0.1s0,0.3,0,0.4s0,0.2,0,0.3s0,0.2,0,0.3s0,0.2,0,0.3
		c0,0.1,0.1,0.2,0.1,0.3s0.1,0.2,0.1,0.4c0,0.1,0.1,0.2,0.1,0.2c0.1,0.1,0.1,0.2,0.2,0.4c0,0.1,0.1,0.1,0.1,0.1
		c0.1,0.2,0.3,0.3,0.4,0.4c0.1,0.1,0.1,0.1,0.2,0.2c0.1,0.1,0.3,0.2,0.4,0.3c0.1,0,0.1,0.1,0.2,0.1c0.2,0.1,0.3,0.1,0.5,0.2
		c0.1,0,0.1,0,0.2,0.1c0.3,0.1,0.5,0.1,0.8,0.1s0.6-0.1,0.9-0.1h0.1c0.3-0.1,0.6-0.2,0.8-0.4c0.7-0.5,1.3-1.2,1.5-2.3l1.9-8.8
		l2.1-9.7L287.9,190.2z"/>
	<g class="st2">
		<path class="st11" d="M304.8,226.8c0.1,0.1,0.3,0.1,0.4,0.2C305.1,226.9,305,226.9,304.8,226.8z"/>
		<path class="st11" d="M304,226.4c0.2,0.1,0.3,0.2,0.5,0.3C304.4,226.6,304.2,226.5,304,226.4z"/>
		<path class="st11" d="M303,225.2c0.1,0.1,0.1,0.2,0.2,0.3C303.1,225.4,303,225.3,303,225.2z"/>
		<path class="st11" d="M303.3,225.8c0.2,0.2,0.3,0.4,0.5,0.5C303.7,226.2,303.5,226,303.3,225.8z"/>
		<path class="st11" d="M305.8,227.1c-0.1,0-0.2,0-0.2-0.1c0.2,0,0.4,0.1,0.6,0.1C306,227.1,305.9,227.1,305.8,227.1z"/>
		<path class="st11" d="M306.2,227.1L306.2,227.1c0.3,0,0.6-0.1,1-0.2C306.8,227.1,306.5,227.1,306.2,227.1z"/>
		<path class="st11" d="M302.6,223.8c0,0.1,0,0.2,0,0.3C302.7,224.1,302.6,224,302.6,223.8z"/>
		<path class="st11" d="M307.4,226.9c0.3-0.1,0.6-0.3,0.9-0.4C308,226.7,307.7,226.8,307.4,226.9z"/>
		<path class="st11" d="M302.7,224.6c0,0.1,0.1,0.2,0.1,0.3C302.8,224.8,302.8,224.7,302.7,224.6z"/>
	</g>
	<path class="st4" d="M305.2,198.1l-2.6,25.1c0,0.1,0,0.1,0,0.2c0,0.1,0,0.3,0,0.4c0,0.1,0,0.2,0,0.3s0,0.2,0.1,0.3
		c0,0.1,0.1,0.2,0.1,0.3s0.1,0.2,0.1,0.3c0.1,0.1,0.1,0.2,0.2,0.3c0.1,0.1,0.1,0.2,0.2,0.3c0.2,0.2,0.3,0.4,0.5,0.5
		c0,0,0.1,0,0.1,0.1c0.2,0.1,0.3,0.2,0.5,0.3c0.1,0,0.2,0.1,0.2,0.1c0.1,0.1,0.3,0.1,0.4,0.2c0.1,0,0.2,0,0.3,0.1
		c0.2,0,0.4,0.1,0.6,0.1l0,0c0.3,0,0.6-0.1,1-0.2c0.1,0,0.1,0,0.2,0c0.3-0.1,0.6-0.3,0.9-0.4c0.8-0.6,1.3-1.4,1.4-2.6l2.4-22.8
		L305.2,198.1z"/>
	<g class="st2">
		<path class="st11" d="M324.8,234.8c0.2,0.2,0.3,0.4,0.5,0.6C325.2,235.2,325,235,324.8,234.8z"/>
		<path class="st11" d="M324.4,234.1c0.1,0.1,0.1,0.3,0.2,0.4C324.7,234.5,324.6,234.4,324.4,234.1z"/>
		<path class="st11" d="M324.1,232.8c0,0.1,0,0.2,0,0.3C324.1,233.1,324.1,232.9,324.1,232.8z"/>
		<path class="st11" d="M324.2,233.5c0,0.1,0.1,0.2,0.1,0.3C324.3,233.7,324.2,233.6,324.2,233.5z"/>
		<path class="st11" d="M328.8,236.1c0.3-0.1,0.6-0.2,0.8-0.4C329.4,235.8,329.1,236,328.8,236.1z"/>
		<path class="st11" d="M325.6,235.5c0.1,0.1,0.3,0.2,0.4,0.3C325.8,235.7,325.7,235.6,325.6,235.5z"/>
		<path class="st11" d="M327.6,236.2L327.6,236.2c0.3,0,0.6-0.1,0.9-0.1C328.4,236.2,328.1,236.2,327.6,236.2z"/>
		<path class="st11" d="M326.2,235.9c0.1,0.1,0.3,0.1,0.4,0.2C326.5,236,326.4,236,326.2,235.9z"/>
		<path class="st11" d="M327.1,236.2c-0.1,0-0.1,0-0.2,0c0.2,0,0.4,0.1,0.7,0.1C327.5,236.2,327.3,236.2,327.1,236.2z"/>
	</g>
	<path class="st4" d="M330.7,209.8l-3-1.3l-0.6,4l-3,19.7c0,0.1,0,0.2,0,0.2c0,0.1,0,0.3,0,0.4s0,0.2,0,0.3s0,0.2,0.1,0.3
		c0,0.1,0.1,0.2,0.1,0.3c0,0.1,0.1,0.2,0.1,0.3c0.1,0.1,0.1,0.3,0.2,0.4c0,0.1,0.1,0.1,0.1,0.2c0.2,0.2,0.3,0.4,0.5,0.6
		c0.1,0.1,0.1,0.1,0.2,0.1c0.1,0.1,0.3,0.2,0.4,0.3c0.1,0,0.2,0.1,0.3,0.1c0.1,0.1,0.3,0.1,0.4,0.2c0.1,0,0.2,0.1,0.3,0.1
		c0.2,0,0.4,0.1,0.7,0.1l0,0c0.3,0,0.6-0.1,0.9-0.1c0.1,0,0.1,0,0.2,0c0.3-0.1,0.6-0.2,0.8-0.4c0.8-0.5,1.3-1.3,1.5-2.4l1.2-8.3
		l2-13.4L330.7,209.8z"/>
	<g class="st2">
		<path class="st11" d="M353.8,250.2c-0.3,0-0.5,0-0.7-0.1C353.3,250.2,353.6,250.2,353.8,250.2L353.8,250.2z"/>
		<path class="st11" d="M350.7,248.3c0.1,0.2,0.2,0.3,0.3,0.5C350.8,248.6,350.7,248.5,350.7,248.3z"/>
		<path class="st11" d="M351,248.9c0.1,0.2,0.3,0.3,0.4,0.4C351.3,249.2,351.2,249,351,248.9z"/>
		<path class="st11" d="M352.4,249.9c0.2,0.1,0.3,0.1,0.5,0.2C352.7,250,352.6,250,352.4,249.9z"/>
		<path class="st11" d="M355,250c0.3-0.1,0.6-0.2,0.9-0.5C355.7,249.7,355.4,249.9,355,250z"/>
		<path class="st11" d="M353.9,250.2h-0.1c0.3,0,0.7-0.1,1-0.2C354.5,250.1,354.2,250.2,353.9,250.2z"/>
		<path class="st11" d="M350.4,247.3c0,0.1,0,0.1,0,0.2C350.4,247.4,350.4,247.3,350.4,247.3z"/>
		<path class="st11" d="M350.4,247.6c0,0.2,0.1,0.3,0.2,0.5C350.5,248,350.5,247.7,350.4,247.6z"/>
		<path class="st11" d="M351.7,249.5c0.1,0.1,0.3,0.2,0.4,0.3C352,249.7,351.8,249.6,351.7,249.5z"/>
	</g>
	<g class="st2">
		<path class="st3" d="M354.3,220.6l-3.2-1.3l-1.9-0.8v0.1l-2.2-0.9l0.9,28.1l0,0c0-1.1,0.4-2.3,1.4-3l5.5-2.1L354.3,220.6z"/>
		<path class="st3" d="M383,258l-1.4-10.9l-2.1-14.8h-0.1h0.1l-1.1-0.5v0.1l-5.3-2.4l-1,0.7l3.9,28.9c0,0.1,0,0.2,0.1,0.3
			c0,0.1,0,0.2,0.1,0.3c0,0.1,0.1,0.3,0.2,0.4c0,0.1,0,0.1,0.1,0.2c0.1,0.2,0.2,0.4,0.4,0.5l0.1,0.1c0.1,0.1,0.2,0.3,0.4,0.4
			c0.1,0,0.1,0.1,0.2,0.1c0.1,0.1,0.2,0.2,0.3,0.2c0.1,0,0.1,0.1,0.2,0.1c0.2,0.1,0.4,0.2,0.5,0.2c0.1,0,0.1,0,0.2,0.1
			c0.2,0.1,0.5,0.1,0.7,0.1l0,0c0.3,0,0.5,0,0.8-0.1c0.1,0,0.2,0,0.2-0.1c0.3-0.1,0.5-0.2,0.7-0.3l0,0c0.2-0.1,0.4-0.3,0.6-0.5
			c0.1-0.1,0.1-0.1,0.2-0.2c0.2-0.2,0.3-0.4,0.4-0.6C382.9,259.7,383.1,258.9,383,258z"/>
	</g>
	<circle class="st12" cx="378.6" cy="258" r="5.9"/>
	<circle class="st7" cx="378.6" cy="258" r="3.5"/>
	<circle class="st12" cx="352.1" cy="245.1" r="5.9"/>
	<circle class="st7" cx="352.1" cy="245.1" r="3.5"/>
	<circle class="st12" cx="327.1" cy="233.6" r="5.9"/>
	<path class="st7" d="M330.6,233.6c0-2-1.5-3.5-3.5-3.5c-2,0-3.5,1.5-3.5,3.5c0,2,1.5,3.5,3.5,3.5
		C329.1,237.1,330.6,235.6,330.6,233.6z"/>
	<circle class="st12" cx="305.4" cy="223.4" r="5.9"/>
	<circle class="st7" cx="305.4" cy="223.4" r="3.5"/>
	<circle class="st12" cx="284.3" cy="210.9" r="5.9"/>
	<circle class="st7" cx="284.3" cy="210.9" r="3.5"/>
	<circle class="st12" cx="262.5" cy="197.6" r="5.9"/>
	<circle class="st7" cx="262.5" cy="197.6" r="3.5"/>
	<path class="st4" d="M65.7,291.9h0.5c4.4,5.4,19.5,4.4,19.5,4.4c7.9,0.9,78.9-0.9,78.9-0.9c23.1,0,88.7,0.9,88.7,0.9
		c33.7,4.4,120.6,2.7,120.6,2.7c74.5-3.5,104.7-31,104.7-31v8.1c0,0,2.7,8.9-29.3,19.5c0,0-44.3,12.5-78.1,15c0,0-44.3,4.4-78.9,1.8
		c0,0-32.9-0.9-80.7-1.8c0,0-51.4,0-64.7,0s-51.4,0-67.4-2.7C79.6,308,66,307,65.7,291.9"/>
	<path class="st13" d="M86.1,210c-0.2,0-0.4,0-0.5,0C85.8,210,86,210,86.1,210z"/>
</g>
<g id="Calque_2" class="st0">
	<path class="st1" d="M1.2,257.2h509.7C510.8,397.9,396.7,512,256,512S1.2,397.9,1.2,257.2z"/>
	<g class="st2">
		<path class="st14" d="M331.3,104c3.8-4.5,8.2-8.3,12.9-11.8c4.8-3.5,10.1-6.5,15.9-8.6c3-1.1,6.1-2,9.3-2.5
			c3.3-0.5,6.8-0.6,10.3-0.1c3.6,0.5,7.2,1.6,10.5,3.5c3.3,1.8,6.2,4.3,8.5,7c1.1,1.3,2.3,2.8,3.2,4.2c0.4,0.7,0.9,1.4,1.3,2.3
			c0.1,0.2,0.4,0.8,0.6,1.1l0.6,1.2c1.5,3.2,2.5,6.7,3,10.3c1,7.1-0.2,14.1-2.5,20.1c-2.2,6.1-5.2,11.5-8.6,16.5s-7.1,9.7-11,14.1
			c-15.6,17.6-33.9,31.5-52.6,44.4c-18.9,12.7-38.4,24.3-58.5,34.6l-0.7-1.3c18.9-12.3,37.4-25.3,54.8-39.3
			c8.7-7,17.3-14.3,25.4-21.9c8.1-7.6,15.8-15.6,22.5-24.1c3.4-4.3,6.5-8.7,9-13.3c2.6-4.6,4.6-9.3,5.8-14c1.2-4.7,1.4-9.2,0.7-13.4
			c-0.3-2.1-1-4-1.8-6l-0.3-0.7l-0.3-0.7c-0.2-0.5-0.5-0.9-0.8-1.4c-0.6-0.9-1.1-1.8-1.7-2.7c-2.5-3.3-5.4-5.4-9.4-6.7
			c-4-1.1-8.8-1.1-13.9-0.3c-5,0.8-10.3,2.3-15.4,4.1c-5.2,1.8-10.4,4.1-15.5,6.5L331.3,104z"/>
		<path class="st14" d="M180.7,104c-3.8-4.5-8.2-8.3-12.9-11.8c-4.8-3.5-10.1-6.5-15.9-8.6c-3-1.1-6.1-2-9.3-2.5
			c-3.3-0.5-6.8-0.6-10.3-0.1c-3.6,0.5-7.2,1.6-10.5,3.5c-3.3,1.8-6.2,4.3-8.5,7c-1.1,1.3-2.3,2.8-3.2,4.2c-0.4,0.7-0.9,1.4-1.3,2.3
			c-0.1,0.2-0.4,0.8-0.6,1.1l-0.6,1.2c-1.5,3.2-2.5,6.7-3,10.3c-1,7.1,0.2,14.1,2.5,20.1c2.2,6.1,5.2,11.5,8.6,16.5
			c3.4,5,7.1,9.7,11,14.1c15.6,17.6,33.9,31.5,52.6,44.4c18.9,12.7,38.4,24.3,58.5,34.6l0.7-1.3c-18.9-12.3-37.4-25.3-54.8-39.3
			c-8.7-7-17.3-14.3-25.4-21.9c-8.1-7.6-15.8-15.6-22.5-24.1c-3.4-4.3-6.5-8.7-9-13.3c-2.6-4.6-4.6-9.3-5.8-14
			c-1.2-4.7-1.4-9.2-0.7-13.4c0.3-2.1,1-4,1.8-6l0.3-0.7l0.3-0.7c0.2-0.5,0.5-0.9,0.8-1.4c0.6-0.9,1.1-1.8,1.7-2.7
			c2.5-3.3,5.4-5.4,9.4-6.7c4-1.1,8.8-1.1,13.9-0.3c5,0.8,10.3,2.3,15.4,4.1c5.2,1.8,10.4,4.1,15.5,6.5L180.7,104z"/>
	</g>
	<path class="st15" d="M325,182.2l22.6-95.8c-29.2-10-58.5-10-92.4-10s-63.3,0-92.4,10l22.6,95.8c0,0,10.3,48,43.9,76
		c0,0,15.1,28.8,10.3,47.2l-11,21.3l4.1,6.9c0,0-10.3,22.6-31.5,33.6v7.5c0,0,15.1,9,52.6,9.6l0,0c0.5,0,1,0,1.5,0s1,0,1.5,0l0,0
		c37.5-0.5,52.6-9.6,52.6-9.6v-7.6c-21.3-11-31.5-33.6-31.5-33.6l4.1-6.9L271,305.4c-4.8-18.5,10.3-47.2,10.3-47.2
		C314.8,230.1,325,182.2,325,182.2z"/>
	<path class="st16" d="M256,76.4c-33.9,0-64.1,0-93.3,10l22.6,95.8c0,0,10.3,48,43.9,76c0,0,15.1,28.8,10.3,47.2l-11,21.3l4.1,6.9
		c0,0-10.3,22.6-31.5,33.6v7.5c0,0,15.1,9,52.6,9.6l0,0c0.5,0,1.8,0,2.4,0V76.4z"/>
	<polygon class="st17" points="353.5,414.5 158.5,414.5 169.3,375.8 342.7,375.8 	"/>
	<polygon class="st18" points="256,414.5 158.5,414.5 169.3,375.8 256,375.8 	"/>
	<rect x="158.5" y="414.5" class="st19" width="195" height="23.4"/>
	<rect x="158.5" y="414.5" class="st20" width="97.6" height="23.4"/>
	<polygon class="st17" points="336.1,393.2 175.9,393.2 184.7,361.4 327.3,361.4 	"/>
	<polygon class="st18" points="256,393.2 175.9,393.2 184.7,361.4 256,361.4 	"/>
	<rect x="175.9" y="393.2" class="st19" width="160.2" height="10.4"/>
	<rect x="175.9" y="393.2" class="st20" width="80.1" height="10.4"/>
	<path class="st21" d="M201.2,367.1v7.5c0,0,15.1,9,52.6,9.6h0.9c0.5,0,1,0,1.5,0c0.5,0,1,0,1.5,0h-0.9c37.5-0.5,52.6-9.6,52.6-9.6
		v-7.5c0,0-18,8-53.1,8S201.2,367.1,201.2,367.1z"/>
	<path class="st22" d="M201.2,367.1v7.5c0,0,15.1,9,52.6,9.6h0.9c0.5,0,1.4,0,1.4,0c-0.1,0,0-9.1,0-9.1
		C220.9,375.1,201.2,367.1,201.2,367.1z"/>
</g>
<g id="Calque_3" class="st0">
	<g class="st2">
		<path class="st23" d="M0,256h512c0,141.4-114.6,256-256,256S0,397.4,0,256z"/>
	</g>
	<g class="st2">
		<g>
			<path class="st24" d="M148.9,324.2l-9.3,7c-2.6,1.9-3.1,5.6-1.2,8.2c1.1,1.5,2.9,2.3,4.7,2.3c1.2,0,2.4-0.4,3.5-1.2l9.3-7
				c2.6-1.9,3.1-5.6,1.2-8.2C155.1,322.8,151.4,322.2,148.9,324.2z"/>
			<path class="st24" d="M164.7,212.9l-8.3-8.3c-2.3-2.3-6-2.3-8.3,0c-2.3,2.3-2.3,6,0,8.3l8.3,8.3c1.1,1.1,2.6,1.7,4.1,1.7
				c1.5,0,3-0.6,4.1-1.7C167,218.9,167,215.2,164.7,212.9z"/>
			<path class="st24" d="M174.3,252.2c3.2,0,5.8-2.6,5.8-5.8v-11.7c0-3.2-2.6-5.8-5.8-5.8s-5.8,2.6-5.8,5.8v11.7
				C168.4,249.6,171,252.2,174.3,252.2z"/>
			<path class="st24" d="M174.3,287.2c3.2,0,5.8-2.6,5.8-5.8v-11.7c0-3.2-2.6-5.8-5.8-5.8s-5.8,2.6-5.8,5.8v11.7
				C168.4,284.6,171,287.2,174.3,287.2z"/>
			<path class="st24" d="M139.9,188.1l-8.3-8.3c-2.3-2.3-6-2.3-8.3,0c-2.3,2.3-2.3,6,0,8.3l8.3,8.3c1.1,1.1,2.6,1.7,4.1,1.7
				c1.5,0,3-0.6,4.1-1.7C142.2,194.1,142.2,190.4,139.9,188.1z"/>
			<path class="st24" d="M388.6,179.8c-2.3-2.3-6-2.3-8.3,0l-8.3,8.3c-2.3,2.3-2.3,6,0,8.3c1.1,1.1,2.6,1.7,4.1,1.7s3-0.6,4.1-1.7
				l8.3-8.3C390.9,185.8,390.9,182.1,388.6,179.8z"/>
			<path class="st24" d="M373.9,328.2L364,322c-2.7-1.7-6.3-0.9-8,1.9c-1.7,2.7-0.9,6.3,1.9,8l9.9,6.2c1,0.6,2,0.9,3.1,0.9
				c1.9,0,3.8-1,5-2.7C377.5,333.5,376.7,329.9,373.9,328.2z"/>
			<path class="st24" d="M337.7,287.2c3.2,0,5.8-2.6,5.8-5.8v-11.7c0-3.2-2.6-5.8-5.8-5.8s-5.8,2.6-5.8,5.8v11.7
				C331.9,284.6,334.5,287.2,337.7,287.2z"/>
			<path class="st24" d="M363.8,212.9c2.3-2.3,2.3-6,0-8.3c-2.3-2.3-6-2.3-8.3,0l-8.3,8.3c-2.3,2.3-2.3,6,0,8.3
				c1.1,1.1,2.6,1.7,4.1,1.7c1.5,0,3-0.6,4.1-1.7L363.8,212.9z"/>
			<path class="st24" d="M337.7,252.2c3.2,0,5.8-2.6,5.8-5.8v-11.7c0-3.2-2.6-5.8-5.8-5.8s-5.8,2.6-5.8,5.8v11.7
				C331.9,249.6,334.5,252.2,337.7,252.2z"/>
			<path class="st24" d="M344.2,309.6l-0.7-0.4v-4.4c0-3.2-2.6-5.8-5.8-5.8s-5.8,2.6-5.8,5.8v7.7c0,2,1,3.9,2.7,5l3.4,2.1
				c1,0.6,2,0.9,3.1,0.9c1.9,0,3.8-1,5-2.7C347.8,314.9,347,311.3,344.2,309.6z"/>
			<path class="st24" d="M221,306.6h-11.7c-3.2,0-5.8,2.6-5.8,5.8s2.6,5.8,5.8,5.8H221c3.2,0,5.8-2.6,5.8-5.8S224.2,306.6,221,306.6
				z"/>
			<path class="st24" d="M250.2,306.6h-5.8c-3.2,0-5.8,2.6-5.8,5.8s2.6,5.8,5.8,5.8h5.8c3.2,0,5.8-2.6,5.8-5.8
				S253.4,306.6,250.2,306.6z"/>
			<path class="st24" d="M185.9,306.6h-5.8v-1.8c0-3.2-2.6-5.8-5.8-5.8s-5.8,2.6-5.8,5.8v4.7l-0.9,0.7c-2.6,1.9-3.1,5.6-1.2,8.2
				c1.1,1.5,2.9,2.3,4.7,2.3c1.2,0,2.4-0.4,3.5-1.2l1.6-1.2h9.7c3.2,0,5.8-2.6,5.8-5.8S189.2,306.6,185.9,306.6z"/>
			<path class="st24" d="M314.4,306.6h-11.7c-3.2,0-5.8,2.6-5.8,5.8s2.6,5.8,5.8,5.8h11.7c3.2,0,5.8-2.6,5.8-5.8
				S317.6,306.6,314.4,306.6z"/>
		</g>
		<path class="st25" d="M404.3,353.3h-10.5c-5.2,0-9.4-4.2-9.4-9.4V184H127.6v160c0,5.2-4.2,9.4-9.4,9.4h-10.5
			c-5.2,0-9.4-4.2-9.4-9.4V168.7c0-7.7,6.2-13.9,13.9-13.9h285.4c8.8,0,16,7.2,16,16v173.2C413.6,349.1,409.5,353.3,404.3,353.3z"/>
		<path class="st26" d="M297.3,293.7l-4.7,1.2l-5.8-5.8l0.9-3.3c-3.4-1.6-7.2-2.6-11.2-2.6c-7.3,0-13.8,2.9-18.6,7.7l4,4l-2.1,8
			l-8,2.1l-1-1c-0.4,1.8-0.6,3.6-0.6,5.5c0,6.1,2.2,11.7,5.7,16.2l5.9-1.6l5.8,5.8l-1,3.9c3,1.2,6.3,1.9,9.8,1.9
			c4.6,0,8.9-1.3,12.7-3.4l-4-4l2.1-8l8-2.1l4,4c2.1-3.8,3.4-8.1,3.4-12.7C302.7,303.5,300.6,298.1,297.3,293.7z M281.5,314.6
			l-8,2.1l-5.8-5.8l2.1-8l8-2.1l5.8,5.8L281.5,314.6z"/>
		<polygon class="st27" points="269.8,302.9 267.7,310.9 273.5,316.7 281.5,314.6 283.6,306.6 277.8,300.7 		"/>
		<path class="st27" d="M287.3,320.4l-2.1,8l4,4c4.3-2.4,7.7-5.9,10.1-10.1l-4-4L287.3,320.4z"/>
		<path class="st27" d="M292.6,294.9l4.7-1.2c-2.5-3.3-5.8-6-9.6-7.8l-0.9,3.2L292.6,294.9z"/>
		<path class="st27" d="M259.7,302.9l2.1-8l-4-4c-3.5,3.5-6,8.1-7.1,13.1l1,1L259.7,302.9z"/>
		<path class="st27" d="M261.8,324.1l-5.9,1.6c2.8,3.6,6.5,6.4,10.7,8.2l1-3.9L261.8,324.1z"/>
	</g>
</g>
<g id="Calque_4" class="st0">
	<path class="st1" d="M0,256h512c0,141.4-114.6,256-256,256S0,397.4,0,256z"/>
	<g class="st2">
		<path class="st28" d="M406.6,148.5c-8.5-8.9-19.2-12.4-28.1-3.8l-87.9,84.5c1.2,1.3,43.2,40.5,43.2,40.5l75.5-92.8
			C418.1,168.3,415,157.4,406.6,148.5z"/>
		<g>
			<polygon class="st29" points="346.9,253.4 349,250.8 349,250.7 346.8,253.4 			"/>
			<path class="st29" d="M368.3,197.5l0.5,28.5h0.1l2-2.6l-0.5-28.7l20-24.6l0.5,28.5h0.1l2-2.6l-0.5-28.7l14.6-18.1
				c-0.3-0.3-0.5-0.6-0.9-1c-0.2-0.2-0.4-0.5-0.7-0.7l-59.4,73.7l0.6,32h0.1l2.1-2.6l-0.5-28.6L368.3,197.5z"/>
		</g>
		<path class="st28" d="M340.8,174.4l0.1-2.6c0-0.3,0-0.5-0.1-0.9V64.5c0-11.4-9.3-16.3-20.7-16.3c-11.4,0-20.7,4.9-20.7,16.3V45.3
			c0-11.4-9.3-16.3-20.7-16.3s-20.7,4.9-20.7,16.3v12.5c0-11.4-9.3-16.3-20.7-16.3s-20.7,4.9-20.7,16.3v23.3
			c0-11.4-9.3-16.3-20.7-16.3S175,69.6,175,81.1v86.7c0,1,0,3.7,0,4.2l5.7,118.2c0,20.3,9.6,30.9,21.5,30.9h112.3
			c11.9,0,21.5-10.6,21.5-30.9l3.2-81.6C340.3,206.1,340.8,174.4,340.8,174.4z"/>
		<rect x="190" y="316.1" class="st30" width="137.6" height="82.8"/>
		<g>
			<path class="st9" d="M267.7,331.6c0-3.1-2.6-5.7-5.7-5.7h-72v11.3h72C265.1,337.3,267.7,334.7,267.7,331.6z"/>
			<path class="st9" d="M285.2,358.6c0-3.1-2.6-5.7-5.7-5.7h-89.6v11.3h89.6C282.7,364.3,285.2,361.7,285.2,358.6z"/>
			<path class="st9" d="M302.8,385.6c0-3.1-2.6-5.7-5.7-5.7H190v11.3h107.1C300.3,391.3,302.8,388.7,302.8,385.6z"/>
		</g>
		<g>
			<polygon class="st29" points="216.6,80.2 218.2,169.9 215,169.9 			"/>
			<polygon class="st29" points="258.1,57.5 259.7,168.5 256.5,168.5 			"/>
			<polygon class="st29" points="299.4,64.4 301,168.5 297.8,168.5 			"/>
			<path class="st29" d="M196,157.4V64.5h-0.1c-0.7,0-1.5,0-2.1,0.1v21.6l-18.5,22v3.3l0.1,0.1l18.4-21.8v31.6l-18.5,21.9v3.3
				l0.1,0.1l18.4-21.8v31.6l-5.4,6.5c1.2-0.3,2.5-0.6,3.8-1L196,157.4z"/>
			<path class="st29" d="M192.2,162.1c-1.3,0.3-2.6,0.6-3.8,1l-11.1,13.2l-1.6,1.9l0.1,3.3l2.6-3.1L192.2,162.1z"/>
			<path class="st29" d="M322.3,112.1l18.4,21.8l0.1-0.1v-3.2l-18.5-21.9V77l18.4,21.8l0.1-0.1v-3.3l-18.5-21.9V48.2
				c-0.7,0-1.4-0.1-2.1-0.1H320v96.4l20.7,24.5l0.1-0.1v-3.3l-18.5-21.9v-31.5L322.3,112.1L322.3,112.1z"/>
			
				<rect x="215.7" y="66.8" transform="matrix(0.6363 -0.7714 0.7714 0.6363 32.7452 206.4606)" class="st29" width="39.2" height="3.4"/>
			
				<rect x="215.7" y="84.4" transform="matrix(0.6363 -0.7714 0.7714 0.6363 19.1454 212.8425)" class="st29" width="39.2" height="3.4"/>
			
				<rect x="215.7" y="101.9" transform="matrix(0.6363 -0.7714 0.7714 0.6363 5.6342 219.2466)" class="st29" width="39.2" height="3.4"/>
			
				<rect x="215.7" y="119.6" transform="matrix(0.6363 -0.7714 0.7714 0.6363 -7.9696 225.6203)" class="st29" width="39.2" height="3.4"/>
			
				<rect x="215.8" y="137.1" transform="matrix(0.6362 -0.7715 0.7715 0.6362 -21.4646 232.0705)" class="st29" width="39.2" height="3.4"/>
			
				<rect x="259.4" y="66.8" transform="matrix(0.6363 -0.7714 0.7714 0.6363 48.6113 240.1696)" class="st29" width="39.2" height="3.4"/>
			
				<rect x="259.4" y="49.3" transform="matrix(0.6363 -0.7714 0.7714 0.6363 62.1229 233.7646)" class="st29" width="39.2" height="3.4"/>
			
				<rect x="259.4" y="84.4" transform="matrix(0.6363 -0.7714 0.7714 0.6363 35.0118 246.5507)" class="st29" width="39.2" height="3.4"/>
			
				<rect x="259.4" y="102" transform="matrix(0.6363 -0.7714 0.7714 0.6363 21.5003 252.9556)" class="st29" width="39.2" height="3.4"/>
			
				<rect x="259.4" y="119.6" transform="matrix(0.6363 -0.7714 0.7714 0.6363 7.8966 259.3294)" class="st29" width="39.2" height="3.4"/>
			
				<rect x="259.4" y="137.1" transform="matrix(0.6362 -0.7715 0.7715 0.6362 -5.6013 265.7794)" class="st29" width="39.2" height="3.4"/>
			<path class="st29" d="M302.3,190h-89.2c-1.6,0-2.9-1.3-2.9-2.9c0-1.6,1.3-2.9,2.9-2.9h89.2c1.6,0,2.9,1.3,2.9,2.9
				C305.1,188.8,303.8,190,302.3,190z"/>
			<path class="st29" d="M309,207.7H206.3c-1.6,0-2.9-1.3-2.9-2.9c0-1.6,1.3-2.9,2.9-2.9H309c1.6,0,2.9,1.3,2.9,2.9
				C311.9,206.4,310.6,207.7,309,207.7z"/>
			<path class="st29" d="M302.3,225.2h-89.2c-1.6,0-2.9-1.3-2.9-2.9c0-1.6,1.3-2.9,2.9-2.9h89.2c1.6,0,2.9,1.3,2.9,2.9
				C305.1,223.9,303.8,225.2,302.3,225.2z"/>
		</g>
	</g>
</g>
<g id="Calque_5" class="st0">
	<path class="st1" d="M2.8,256.5h509.1c0,140.5-114,254.5-254.5,254.5S2.8,397,2.8,256.5z"/>
	<g class="st2">
		<path class="st31" d="M338.7,152.4c0,0,20.7-37.9,40.4-25.9c0,0,12,6.9,11,22.3c0,0-20.7-17.1-26.3,17.9L338.7,152.4z"/>
		<polygon class="st32" points="380,174 390.1,148.9 370.8,135.2 362.6,165.7 		"/>
		<g>
			<path class="st33" d="M380,174c0,0,4.2-5.5,7.2-12.2c3-6.7,2.9-13,2.9-13l-2.7-2.9l-5.2-0.9c0,0,2.4,2.9,0.4,9
				c-1.3,4.2-9,15.7-9,15.7L380,174z"/>
			<path class="st33" d="M390.1,148.9c0.3-3.9-0.3-7.2-1.3-10.1c-9.1-10.6-26.7-1.3-37.1,20.9l12.2,6.9
				C369.3,131.7,390.1,148.9,390.1,148.9z"/>
		</g>
		<path class="st34" d="M233.4,167.9L100.9,320.1l94,45.6c0,0,172.7-152.7,200.4-187.5l-86.7-39.9
			C296.5,134.3,275.6,118.4,233.4,167.9z"/>
		<path class="st31" d="M326,209.7L194.9,365.6l10.2,32c0,0,56.8-56.8,90.4-65.6c0,0,62-2.2,89.6-37.1c0,0,63.4-58.6,14.2-113.7
			C393.4,174.9,368.3,160.2,326,209.7z"/>
		<path class="st34" d="M104.2,368.7c0,0-2.9-4.5-13.6-25.6c-6.1-12-3.8-24,12.5-24.6l91.8,47.2l14.2,30.4c0,0,2.8,16.9-16.9,15.8
			L104.2,368.7z"/>
		<path class="st35" d="M104.2,368.7c0,0-2.9-4.5-13.6-25.6c-6.1-12-3.8-24,12.5-24.6l91.8,47.2l14.2,30.4c0,0,2.8,16.9-16.9,15.8
			L104.2,368.7z"/>
		<polygon class="st36" points="188,395 102.6,356.2 98.7,349.6 179,386.2 		"/>
		<path class="st34" d="M181.3,406.5l-11.9-22.7c-6.1-12-4.4-26.5,11.6-27.1c2.8-0.1,14,8.9,14,8.9l6,25.2l-12.1,19.4L181.3,406.5z"
			/>
		<g>
			<path class="st31" d="M188.7,410.3l6.2-44.6l14.2,30.4c0,0,2.8,16.9-16.9,15.8L188.7,410.3z"/>
			<path class="st31" d="M188.7,410.3c0,0-1.1-2.1-11.9-23.1c-6.1-12-5-24.9,11-25.5c2.8-0.1,7.1,4,7.1,4l13.3,28.6L188.7,410.3z"/>
		</g>
		<polygon class="st37" points="292.2,236 216.1,201 252.8,159.4 326.5,194.4 		"/>
		<polygon class="st38" points="292.2,236 260.5,221.6 252.8,159.4 326.5,194.4 		"/>
	</g>
</g>
<g id="Calque_6" class="st0">
	<path class="st1" d="M0,255.9h510.1c0,140.8-114.2,255.1-255.1,255.1S0,396.8,0,255.9z"/>
	<g class="st2">
		<g>
			<path class="st39" d="M352.6,360.2c0.8-8.6-7.9-56.6-23.2-75.2l-50,0.3l-18.2-15c-5.9-6.7-17.9-21.9-17.9-21.9L215,266.5
				c2.5,12,0.6,18.1,8,29.4c10,15.1,18.1,34.1,49.9,81.6l-43.1,132.1c8.3,0.8,16.7,1.2,25.2,1.2c21.9,0,43.1-2.8,63.3-7.9
				c8.1-38.4,16.4-77.7,21.2-99.9C341.3,394.8,351.6,370.8,352.6,360.2z"/>
			<path class="st39" d="M218.6,287.2c6.7,4.9,19.7-17.2,24.6-23.7l0,0c4.8-6.6,1.9-13.8,1.9-13.8l-33.5-37.5L178.2,170
				c-6.7-4.9-10.9-9.1-17.9-5.7c-9.3,4.5-5,19.7,1.7,26.9l22.9,40.6L218.6,287.2z"/>
		</g>
		<path class="st31" d="M363.7,91.6c-0.7-2.3-2.4-4.1-4.4-5.2L258.9,34.7c-4.4-2.3-9.8-0.5-12.1,3.9l-87,169
			c-2.3,4.4-0.5,9.8,3.9,12.1l100.4,51.7c1.2,0.6,2.7,1,4.1,1c0.9,0,1.9-0.1,2.8-0.4c2.3-0.7,4.1-2.4,5.2-4.4l87-169
			C364.2,96.4,364.5,94,363.7,91.6z"/>
		<path class="st39" d="M332.7,290.2c0,0-15-20.5-20.8-34.7c-3-7.3-13.4-20-25.2-32.4c-11.4-11.8-24.2-21.9-29.4-21.4
			c-14.4,1.4-8.8,24.1-7.9,26.5c8,20.9,28.8,42.4,28.8,42.4l5,30.3L332.7,290.2z"/>
	</g>
</g>
<g id="Calque_7">
	<path class="st23" d="M1.6,256.8H512C512,397.7,397.7,512,256.8,512S1.6,397.7,1.6,256.8z"/>
	<g>
		<g>
			<path class="st39" d="M354.4,361.1c0.8-8.6-7.9-56.7-23.2-75.2l-50,0.3l-18.2-15c-5.9-6.7-17.9-21.9-17.9-21.9l-28.4,18.1
				c2.5,12,0.6,18.1,8,29.4c10,15.1,18.1,34.2,49.9,81.7l-43.1,132.2c8.3,0.8,16.7,1.2,25.2,1.2c21.9,0,43.1-2.8,63.4-7.9
				c8.1-38.5,16.5-77.8,21.2-100C343.1,395.8,353.4,371.7,354.4,361.1z"/>
			<path class="st39" d="M220.3,288.1c6.7,4.9,19.8-17.2,24.6-23.8l0,0c4.8-6.6,1.9-13.8,1.9-13.8L213.2,213l-33.3-42.2
				c-6.7-4.9-10.9-9.2-17.9-5.7c-9.3,4.5-5,19.8,1.7,27l22.9,40.6L220.3,288.1z"/>
		</g>
		<path class="st40" d="M365.5,92.4c-0.7-2.3-2.4-4.1-4.4-5.2L260.6,35.4c-4.4-2.3-9.8-0.5-12.1,3.9l-87,169.1
			c-2.3,4.4-0.5,9.8,3.9,12.1l100.5,51.7c1.2,0.6,2.7,1,4.1,1c0.9,0,1.9-0.1,2.8-0.4c2.3-0.7,4.1-2.4,5.2-4.4l87-169.1
			C366,97.1,366.2,94.8,365.5,92.4z"/>
		<path class="st39" d="M334.5,291c0,0-15-20.5-20.8-34.8c-3-7.3-13.4-20.1-25.2-32.4c-11.4-11.8-24.2-21.9-29.4-21.4
			c-14.4,1.4-8.8,24.1-7.9,26.5c8,20.9,28.8,42.4,28.8,42.4l5,30.3L334.5,291z"/>
	</g>
</g>
</svg>
