<svg id="Calque_6" data-name="Calque 6" xmlns="http://www.w3.org/2000/svg" viewBox="0 0 510.13 477.3"><defs><style>.cls-1{fill:#65a844;}.cls-2{fill:#e5ad88;}.cls-3{fill:#efe020;}</style></defs><title>mediation-yellowcard</title><path class="cls-1" d="M0,255.94H510.13C510.13,396.78,395.91,511,255.06,511S0,396.78,0,255.94Z" transform="translate(0 -33.7)"/><path class="cls-2" d="M352.63,360.18c0.82-8.64-7.92-56.65-23.23-75.15l-50,.31-18.2-15c-5.86-6.68-17.89-21.9-17.89-21.9L215,266.52c2.47,12,.62,18.09,8,29.4,10,15.11,18.09,34.13,49.86,81.63L229.77,509.66c8.33,0.82,16.65,1.23,25.19,1.23A256.91,256.91,0,0,0,318.29,503c8.12-38.45,16.45-77.72,21.18-99.93C341.32,394.83,351.6,370.77,352.63,360.18Z" transform="translate(0 -33.7)"/><path class="cls-2" d="M218.57,287.19c6.68,4.93,19.74-17.17,24.57-23.75h0A15,15,0,0,0,245,249.66l-33.52-37.52L178.17,170c-6.68-4.93-10.9-9.15-17.89-5.65-9.25,4.52-5,19.74,1.75,26.94L185,231.88Z" transform="translate(0 -33.7)"/><path class="cls-3" d="M363.73,91.65a9.28,9.28,0,0,0-4.42-5.24L258.87,34.69a9.06,9.06,0,0,0-12.13,3.91l-87,169a9.06,9.06,0,0,0,3.91,12.13l100.44,51.71a9.36,9.36,0,0,0,4.11,1,8.66,8.66,0,0,0,2.78-.41,9.28,9.28,0,0,0,5.24-4.42l87-169A9.68,9.68,0,0,0,363.73,91.65Z" transform="translate(0 -33.7)"/><path class="cls-2" d="M332.68,290.17s-15-20.46-20.77-34.75c-3-7.3-13.36-20-25.19-32.38-11.41-11.82-24.16-21.9-29.4-21.38-14.39,1.44-8.84,24.06-7.92,26.52,8,20.87,28.79,42.36,28.79,42.36l5,30.33Z" transform="translate(0 -33.7)"/></svg>