<svg id="Calque_7" data-name="Calque 7" xmlns="http://www.w3.org/2000/svg" viewBox="0 0 510.42 477.57"><defs><style>.cls-1{fill:#65a844;}.cls-2{fill:#e5ad88;}.cls-3{fill:#ea4242;}</style></defs><title>mediation-redcard</title><path class="cls-1" d="M1.58,256.79H512C512,397.72,397.72,512,256.79,512S1.58,397.72,1.58,256.79Z" transform="translate(-1.58 -34.43)"/><path class="cls-2" d="M354.41,361.1c0.82-8.64-7.92-56.68-23.25-75.19l-50,.31-18.21-15c-5.86-6.69-17.9-21.91-17.9-21.91l-28.39,18.1c2.47,12,.62,18.1,8,29.42,10,15.12,18.1,34.15,49.89,81.68l-43.1,132.18c8.33,0.82,16.66,1.23,25.2,1.23A257.06,257.06,0,0,0,320.05,504c8.13-38.47,16.46-77.77,21.19-100C343.09,395.76,353.38,371.69,354.41,361.1Z" transform="translate(-1.58 -34.43)"/><path class="cls-2" d="M220.27,288.06C227,293,240,270.88,244.86,264.3h0a15,15,0,0,0,1.85-13.78L213.18,213,179.85,170.8c-6.69-4.94-10.9-9.16-17.9-5.66-9.26,4.53-5,19.75,1.75,27l22.94,40.63Z" transform="translate(-1.58 -34.43)"/><path class="cls-3" d="M365.52,92.41a9.29,9.29,0,0,0-4.42-5.25L260.6,35.42a9.06,9.06,0,0,0-12.14,3.91l-87,169.11a9.06,9.06,0,0,0,3.91,12.14l100.5,51.74a9.36,9.36,0,0,0,4.11,1,8.66,8.66,0,0,0,2.78-.41,9.29,9.29,0,0,0,5.25-4.42L365,99.41A9.69,9.69,0,0,0,365.52,92.41Z" transform="translate(-1.58 -34.43)"/><path class="cls-2" d="M334.45,291s-15-20.47-20.78-34.77c-3-7.3-13.37-20.06-25.2-32.4C277.06,212,264.3,202,259.05,202.48c-14.4,1.44-8.85,24.07-7.92,26.54,8,20.88,28.8,42.38,28.8,42.38l5,30.35Z" transform="translate(-1.58 -34.43)"/></svg>