<svg id="Calque_5" data-name="Calque 5" xmlns="http://www.w3.org/2000/svg" viewBox="0 0 509.06 386.76"><defs><style>.cls-1{fill:#65a844;}.cls-2{fill:#efe020;}.cls-3{fill:#d8c221;}.cls-4{fill:#e8d523;}.cls-5{fill:#e0ce20;}.cls-6{fill:#ead434;}.cls-7{fill:#ddc328;}.cls-8{fill:#d1bf1c;}.cls-9{fill:#a08f15;}</style></defs><title>mediation-icon</title><path class="cls-1" d="M2.8,256.47H511.85C511.85,397,397.88,511,257.33,511S2.8,397,2.8,256.47Z" transform="translate(-2.8 -124.24)"/><path class="cls-2" d="M338.73,152.44s20.72-37.86,40.42-25.85a24.23,24.23,0,0,1,11,22.26s-20.72-17.13-26.26,17.85Z" transform="translate(-2.8 -124.24)"/><polygon class="cls-3" points="377.18 49.75 387.33 24.61 368.05 10.97 359.84 41.44 377.18 49.75"/><path class="cls-4" d="M380,174a70,70,0,0,0,7.18-12.21,34.23,34.23,0,0,0,2.87-13l-2.67-2.87-5.23-.92s2.36,2.87.41,9c-1.33,4.21-9,15.7-9,15.7Z" transform="translate(-2.8 -124.24)"/><path class="cls-4" d="M390.13,148.85a23.72,23.72,0,0,0-1.33-10.05c-9.13-10.57-26.67-1.33-37.14,20.93l12.21,6.87C369.3,131.72,390.13,148.85,390.13,148.85Z" transform="translate(-2.8 -124.24)"/><path class="cls-5" d="M233.37,167.94L100.93,320.08l94,45.55S367.56,213,395.26,178.09l-86.69-39.91C296.46,134.29,275.64,118.38,233.37,167.94Z" transform="translate(-2.8 -124.24)"/><path class="cls-2" d="M326,209.69L194.9,365.63l10.16,32s56.84-56.84,90.38-65.56c0,0,62-2.15,89.56-37.14,0,0,63.4-58.58,14.16-113.67C393.41,174.91,368.28,160.24,326,209.69Z" transform="translate(-2.8 -124.24)"/><path class="cls-5" d="M104.21,368.71s-2.87-4.51-13.64-25.65c-6.05-12-3.8-24,12.52-24.62l91.82,47.19L209.06,396s2.77,16.93-16.93,15.8Z" transform="translate(-2.8 -124.24)"/><path class="cls-6" d="M104.21,368.71s-2.87-4.51-13.64-25.65c-6.05-12-3.8-24,12.52-24.62l91.82,47.19L209.06,396s2.77,16.93-16.93,15.8Z" transform="translate(-2.8 -124.24)"/><polygon class="cls-7" points="185.23 270.73 99.77 231.95 95.87 225.38 176.2 262.01 185.23 270.73"/><path class="cls-5" d="M181.25,406.46l-11.9-22.67c-6.05-12-4.41-26.47,11.59-27.08,2.77-.1,14,8.93,14,8.93l6,25.24-12.11,19.39Z" transform="translate(-2.8 -124.24)"/><path class="cls-2" d="M188.74,410.26l6.16-44.63L209.06,396s2.77,16.93-16.93,15.8Z" transform="translate(-2.8 -124.24)"/><path class="cls-2" d="M188.74,410.26s-1.13-2.05-11.9-23.08c-6.05-12-5-24.93,11-25.55,2.77-.1,7.08,4,7.08,4l13.34,28.62Z" transform="translate(-2.8 -124.24)"/><polygon class="cls-8" points="289.36 111.71 213.34 76.73 249.96 35.18 323.73 70.16 289.36 111.71"/><polygon class="cls-9" points="289.36 111.71 257.66 97.35 249.96 35.18 323.73 70.16 289.36 111.71"/></svg>