<svg id="feb28f5d-c701-414f-a086-ed9025185a65" data-name="Capa 1" xmlns="http://www.w3.org/2000/svg" viewBox="0 0 49 57"><defs><style>.e1bb3eb6-da30-4284-9aef-bba84249dc82{fill:#656565;}.f1e6e401-97c2-4de8-8190-39c5c0a9dd13{fill:#d1d1d1;}.cc988f52-5e70-4314-9ab4-c983f9dd9205{fill:#989898;}.\36 7ff1d71-1e9e-42ad-a48d-34155ab67010{fill:#a4a4a4;}.b1edc45c-a8e4-471e-a00d-828c5c7a00a4{fill:#bebebe;}.\31 626ebbb-9f4f-4d19-8777-e975253c2881{fill:none;stroke:#a8a8a8;stroke-linecap:round;stroke-linejoin:round;stroke-width:2px;}</style></defs><title>podium</title><path class="e1bb3eb6-da30-4284-9aef-bba84249dc82" d="M38,35V27.16A2.16,2.16,0,0,0,35.84,25H21.16A2.16,2.16,0,0,0,19,27.16V39.85A2.16,2.16,0,0,1,16.84,42H6.16A2.16,2.16,0,0,0,4,44.16v11.6A1.24,1.24,0,0,0,5.24,57H51.76A1.24,1.24,0,0,0,53,55.76V39.16A2.16,2.16,0,0,0,50.85,37H40.16A2,2,0,0,1,38,35Z" transform="translate(-4)"/><circle class="f1e6e401-97c2-4de8-8190-39c5c0a9dd13" cx="24.5" cy="33.5" r="4.5"/><circle class="cc988f52-5e70-4314-9ab4-c983f9dd9205" cx="40.5" cy="46.5" r="4.5"/><circle class="67ff1d71-1e9e-42ad-a48d-34155ab67010" cx="8.5" cy="49.5" r="4.5"/><path class="b1edc45c-a8e4-471e-a00d-828c5c7a00a4" d="M34.84,14.61a16.54,16.54,0,0,0,1.93-5.07A54.61,54.61,0,0,0,38,1.21,1.18,1.18,0,0,0,36.8,0H21.16A1.18,1.18,0,0,0,20,1.21a54.49,54.49,0,0,0,1.22,8.34,16.51,16.51,0,0,0,1.93,5.07c1.79,3,3.69,4,4.83,4.25l-0.18.36C26.36,22.11,25.26,24,23,24a1,1,0,0,0,0,2H35a1,1,0,0,0,0-2c-2.26,0-3.36-1.89-4.77-4.78L30,18.86C31.18,18.56,33.06,17.59,34.84,14.61Z" transform="translate(-4)"/><path class="1626ebbb-9f4f-4d19-8777-e975253c2881" d="M37.59,5.11C37.34,6.75,37,8.36,36.77,9.54a16.51,16.51,0,0,1-1.93,5.07c-0.2.33-.39,0.62-0.59,0.9A5.5,5.5,0,1,0,37.59,5.11Z" transform="translate(-4)"/><path class="1626ebbb-9f4f-4d19-8777-e975253c2881" d="M23.12,14.61a16.54,16.54,0,0,1-1.93-5.07c-0.25-1.18-.56-2.79-0.81-4.43a5.5,5.5,0,1,0,3.35,10.41C23.52,15.24,23.32,14.94,23.12,14.61Z" transform="translate(-4)"/></svg>