<svg id="Calque_4" data-name="Calque 4" xmlns="http://www.w3.org/2000/svg" viewBox="0 0 512 483.06"><defs><style>.cls-1{fill:#65a844;}.cls-2{fill:#3d3c3c;}.cls-3{fill:#333;}.cls-4{fill:#2b2b2b;}.cls-5{fill:#232323;}</style></defs><title>soccer-conceded</title><path class="cls-1" d="M0,256H512c0,141.36-114.64,256-256,256S0,397.36,0,256Z" transform="translate(0 -28.94)"/><path class="cls-2" d="M406.56,148.49c-8.55-8.87-19.23-12.39-28.1-3.85l-87.92,84.5c1.18,1.28,43.16,40.49,43.16,40.49l75.53-92.83C418.1,168.25,415,157.35,406.56,148.49Z" transform="translate(0 -28.94)"/><polygon class="cls-3" points="346.95 224.45 348.98 221.88 348.98 221.78 346.84 224.45 346.95 224.45"/><path class="cls-3" d="M368.31,197.52L368.85,226H369l2-2.56-0.53-28.74,20-24.57L391,198.7h0.11l2-2.56-0.53-28.74,14.64-18.05c-0.32-.32-0.53-0.64-0.85-1a4.94,4.94,0,0,0-.75-0.75l-59.4,73.71,0.64,32h0.11l2.14-2.56-0.53-28.63Z" transform="translate(0 -28.94)"/><path class="cls-2" d="M340.75,174.45l0.11-2.56a2.35,2.35,0,0,0-.11-0.85V64.52c0-11.43-9.29-16.34-20.72-16.34S299.3,53.09,299.3,64.52V45.29c0-11.43-9.29-16.34-20.72-16.34s-20.72,4.91-20.72,16.34v12.5c0-11.43-9.29-16.34-20.72-16.34S216.4,46.36,216.4,57.79V81.08c0-11.43-9.29-16.34-20.72-16.34S175,69.65,175,81.08V172l5.66,118.15c0,20.3,9.61,30.87,21.47,30.87H314.36c11.86,0,21.47-10.58,21.47-30.87l3.2-81.62C340.32,206.07,340.75,174.45,340.75,174.45Z" transform="translate(0 -28.94)"/><rect class="cls-4" x="190.01" y="287.16" width="137.6" height="82.79"/><path class="cls-5" d="M267.68,331.59a5.7,5.7,0,0,0-5.66-5.66H190v11.32h72A5.7,5.7,0,0,0,267.68,331.59Z" transform="translate(0 -28.94)"/><path class="cls-5" d="M285.2,358.62a5.7,5.7,0,0,0-5.66-5.66H189.91v11.32h89.63A5.63,5.63,0,0,0,285.2,358.62Z" transform="translate(0 -28.94)"/><path class="cls-5" d="M302.83,385.65a5.7,5.7,0,0,0-5.66-5.66H190v11.32H297.16A5.7,5.7,0,0,0,302.83,385.65Z" transform="translate(0 -28.94)"/><polygon class="cls-3" points="216.62 51.28 218.22 140.91 215.01 140.91 216.62 51.28"/><polygon class="cls-3" points="258.06 28.52 259.67 139.52 256.46 139.52 258.06 28.52"/><polygon class="cls-3" points="299.41 35.47 301.01 139.52 297.81 139.52 299.41 35.47"/><path class="cls-3" d="M196,157.35V64.52h-0.11a13.62,13.62,0,0,0-2.14.11V86.21l-18.48,22v3.31l0.11,0.11,18.37-21.79v31.62l-18.48,21.9v3.31l0.11,0.11L193.75,125v31.62l-5.45,6.52q1.76-.48,3.85-1Z" transform="translate(0 -28.94)"/><path class="cls-3" d="M192.15,162.05l-3.85,1L177.2,176.26l-1.6,1.92,0.11,3.31,2.56-3.1Z" transform="translate(0 -28.94)"/><path class="cls-3" d="M322.27,112.06l18.37,21.79,0.11-.11v-3.2l-18.48-21.9V77l18.37,21.79,0.11-.11V95.39l-18.48-21.9V48.17c-0.75,0-1.39-.11-2.14-0.11H320v96.36l20.72,24.46,0.11-.11v-3.31l-18.48-21.9V112.06h-0.11Z" transform="translate(0 -28.94)"/><rect class="cls-3" x="215.74" y="66.79" width="39.2" height="3.42" transform="translate(32.75 177.52) rotate(-50.48)"/><rect class="cls-3" x="215.71" y="84.41" width="39.2" height="3.42" transform="translate(19.15 183.9) rotate(-50.48)"/><rect class="cls-3" x="215.74" y="101.94" width="39.2" height="3.42" transform="matrix(0.64, -0.77, 0.77, 0.64, 5.63, 190.3)"/><rect class="cls-3" x="215.7" y="119.55" width="39.2" height="3.42" transform="translate(-7.97 196.68) rotate(-50.48)"/><rect class="cls-3" x="215.75" y="137.09" width="39.2" height="3.42" transform="translate(-21.46 203.13) rotate(-50.49)"/><rect class="cls-3" x="259.42" y="66.82" width="39.2" height="3.42" transform="translate(48.61 211.22) rotate(-50.48)"/><rect class="cls-3" x="259.39" y="49.29" width="39.2" height="3.42" transform="translate(62.12 204.82) rotate(-50.48)"/><rect class="cls-3" x="259.39" y="84.43" width="39.2" height="3.42" transform="translate(35.01 217.61) rotate(-50.48)"/><rect class="cls-3" x="259.43" y="101.97" width="39.2" height="3.42" transform="translate(21.5 224.01) rotate(-50.48)"/><rect class="cls-3" x="259.39" y="119.58" width="39.2" height="3.42" transform="translate(7.9 230.38) rotate(-50.48)"/><rect class="cls-3" x="259.43" y="137.12" width="39.2" height="3.42" transform="translate(-5.6 236.83) rotate(-50.49)"/><path class="cls-3" d="M302.29,190h-89.2a2.88,2.88,0,0,1,0-5.77h89.2a2.87,2.87,0,0,1,2.88,2.88A3,3,0,0,1,302.29,190Z" transform="translate(0 -28.94)"/><path class="cls-3" d="M309,207.67H206.25a2.88,2.88,0,0,1,0-5.77H309A2.88,2.88,0,1,1,309,207.67Z" transform="translate(0 -28.94)"/><path class="cls-3" d="M302.29,225.19h-89.2a2.88,2.88,0,0,1,0-5.77h89.2a2.87,2.87,0,0,1,2.88,2.88A3,3,0,0,1,302.29,225.19Z" transform="translate(0 -28.94)"/></svg>