<?xml version="1.0" encoding="iso-8859-1"?>
<!-- Generator: Adobe Illustrator 19.0.0, SVG Export Plug-In . SVG Version: 6.00 Build 0)  -->
<svg version="1.1" id="Layer_1" xmlns="http://www.w3.org/2000/svg" xmlns:xlink="http://www.w3.org/1999/xlink" x="0px" y="0px"
	 viewBox="0 0 496.2 496.2" style="enable-background:new 0 0 496.2 496.2;" xml:space="preserve">
<path style="fill:#65A844;" d="M0,248.1C0,111.1,111.1,0,248.1,0s248.1,111.1,248.1,248.1S385.1,496.2,248.1,496.2S0,385.1,0,248.1z
	"/>
<path style="fill:#A2D4DE;" d="M386.9,366.4c0,25-19.5,45.2-43.6,45.2H152.9c-24.1,0-43.6-20.2-43.6-45.2V129.8
	c0-25,19.5-45.2,43.6-45.2h190.4c24.1,0,43.6,20.2,43.6,45.2L386.9,366.4L386.9,366.4z"/>
<g>
	<path style="fill:#9BCCD3;" d="M337.8,405.4H158.4c-23.3,0-42.3-19.7-42.3-43.8v-227c0-24.2,19-43.8,42.3-43.8h179.5
		c23.3,0,42.3,19.7,42.3,43.8v227C380.1,385.8,361.2,405.4,337.8,405.4z M158.4,93.3c-22,0-39.8,18.5-39.8,41.3v227
		c0,22.8,17.9,41.3,39.8,41.3h179.5c22,0,39.8-18.5,39.8-41.3v-227c0-22.8-17.9-41.3-39.8-41.3H158.4z"/>
	<path style="fill:#9BCCD3;" d="M331.7,394.8H164.5c-21.8,0-39.5-18.4-39.5-40.9V142.3c0-22.6,17.7-40.9,39.5-40.9h167.1
		c21.8,0,39.5,18.4,39.5,40.9v211.6C371.1,376.5,353.4,394.8,331.7,394.8z M164.5,103.9c-20.4,0-37,17.2-37,38.4v211.6
		c0,21.2,16.6,38.4,37,38.4h167.1c20.4,0,37-17.2,37-38.4V142.3c0-21.2-16.6-38.4-37-38.4C331.6,103.9,164.5,103.9,164.5,103.9z"/>
	<path style="fill:#9BCCD3;" d="M325.1,385.5h-154c-20.1,0-36.5-17-36.5-37.8V148.5c0-20.9,16.4-37.8,36.5-37.8h154
		c20.1,0,36.5,17,36.5,37.8v199.2C361.6,368.6,345.3,385.5,325.1,385.5z M171.1,113.2c-18.8,0-34,15.8-34,35.3v199.2
		c0,19.5,15.3,35.3,34,35.3h154c18.8,0,34-15.8,34-35.3V148.5c0-19.5-15.3-35.3-34-35.3C325.1,113.2,171.1,113.2,171.1,113.2z"/>
	<path style="fill:#9BCCD3;" d="M319,375.9H177.2c-18.6,0-33.7-15.6-33.7-34.9V155.2c0-19.2,15.1-34.9,33.7-34.9h141.7
		c18.6,0,33.7,15.6,33.7,34.9V341C352.6,360.2,337.5,375.9,319,375.9z M177.2,122.8c-17.2,0-31.2,14.5-31.2,32.4V341
		c0,17.9,14,32.4,31.2,32.4h141.7c17.2,0,31.2-14.5,31.2-32.4V155.2c0-17.9-14-32.4-31.2-32.4L177.2,122.8L177.2,122.8z"/>
</g>
<path style="fill:#58B6BA;" d="M341.8,340.4c0,13.1-10.2,23.8-22.7,23.8h-142c-12.5,0-22.7-10.6-22.7-23.8V155.8
	c0-13.1,10.2-23.8,22.7-23.8H319c12.5,0,22.7,10.6,22.7,23.8v184.6H341.8z"/>
<g>
	<path style="fill:#4FA8A8;" d="M312.7,333.5l23.1,22.9c-4.2,4.8-10.1,7.8-16.8,7.8H177.1c-6.9,0-13-3.2-17.2-8.2l23.5-22.5
		L312.7,333.5L312.7,333.5z"/>
	<path style="fill:#4FA8A8;" d="M312.7,162.8l23.1-22.9c-4.2-4.8-10.1-7.8-16.8-7.8H177.1c-6.9,0-13,3.2-17.2,8.2l23.5,22.5H312.7z"
		/>
</g>
<rect x="183.5" y="162.7" style="fill:#92CC71;" width="129.3" height="170.7"/>
<rect x="190" y="168.8" style="fill:#65A844;" width="116.3" height="158.6"/>
<g>
	<path style="fill:#C9E5A1;" d="M256.2,248.5h44.7c0-0.1,0-0.3,0-0.4s0-0.3,0-0.4h-44.7c-0.2-4.3-3.8-7.7-8.1-7.7
		c-4.3,0-7.9,3.4-8.1,7.7h-44.7c0,0.1,0,0.3,0,0.4c0,0.1,0,0.3,0,0.4H240c0.2,4.3,3.8,7.7,8.1,7.7
		C252.4,256.2,256,252.8,256.2,248.5z M248.1,240.8c3.9,0,7,3,7.2,6.8h-6.6c-0.1-0.2-0.4-0.3-0.6-0.3s-0.5,0.1-0.6,0.3h-6.6
		C241.1,243.9,244.2,240.8,248.1,240.8z M240.9,248.5h6.6c0.1,0.2,0.4,0.3,0.6,0.3c0.2,0,0.5-0.1,0.6-0.3h6.6
		c-0.2,3.8-3.4,6.8-7.2,6.8C244.2,255.4,241.1,252.3,240.9,248.5z"/>
	<circle style="fill:#C9E5A1;" cx="248.2" cy="318" r="0.8"/>
	<circle style="fill:#C9E5A1;" cx="248.2" cy="178.2" r="0.8"/>
	<path style="fill:#C9E5A1;" d="M240.8,314.5h14.8h9.8v12.7h0.9v-13.5h-11.2c-1.5-2.3-4.1-3.8-6.9-3.8c-2.8,0-5.4,1.5-6.9,3.8h-11.4
		v13.5h0.9v-12.7H240.8z M248.2,310.7c2.3,0,4.5,1.1,5.9,2.9h-11.7C243.7,311.8,245.8,310.7,248.2,310.7z"/>
	<polygon style="fill:#C9E5A1;" points="255.8,322.8 255.8,327.2 256.7,327.2 256.7,321.9 239.5,321.9 239.5,327.2 240.4,327.2 
		240.4,322.8 	"/>
	<path style="fill:#C9E5A1;" d="M254.9,182.7h11.4V169h-0.9v12.8h-10h-14.8h-9.8V169h-0.9v13.7h11.2c1.5,2.3,4.1,3.8,6.9,3.8
		C250.8,186.5,253.4,185,254.9,182.7z M242.2,182.7h11.7c-1.4,1.9-3.5,2.9-5.9,2.9C245.7,185.6,243.5,184.5,242.2,182.7z"/>
	<polygon style="fill:#C9E5A1;" points="256.7,174.4 256.7,169 255.8,169 255.8,173.6 240.4,173.6 240.4,169 239.5,169 239.5,174.4 
			"/>
</g>
<g>
	<path style="fill:#479694;" d="M326.8,144.3H169.3c-0.8,0-1.5-0.7-1.5-1.5s0.7-1.5,1.5-1.5h157.5c0.8,0,1.5,0.7,1.5,1.5
		S327.7,144.3,326.8,144.3z"/>
	<path style="fill:#479694;" d="M311.3,159.3H184.8c-0.8,0-1.5-0.7-1.5-1.5s0.7-1.5,1.5-1.5h126.5c0.8,0,1.5,0.7,1.5,1.5
		S312.2,159.3,311.3,159.3z"/>
	<path style="fill:#479694;" d="M317.8,151.9H176.5c-0.8,0-1.5-0.7-1.5-1.5s0.7-1.5,1.5-1.5h141.3c0.8,0,1.5,0.7,1.5,1.5
		S318.7,151.9,317.8,151.9z"/>
	<path style="fill:#479694;" d="M326.8,354.9H169.3c-0.8,0-1.5-0.7-1.5-1.5s0.7-1.5,1.5-1.5h157.5c0.8,0,1.5,0.7,1.5,1.5
		S327.7,354.9,326.8,354.9z"/>
	<path style="fill:#479694;" d="M311.3,339.9H184.8c-0.8,0-1.5-0.7-1.5-1.5s0.7-1.5,1.5-1.5h126.5c0.8,0,1.5,0.7,1.5,1.5
		S312.2,339.9,311.3,339.9z"/>
	<path style="fill:#479694;" d="M317.8,347.3H176.5c-0.8,0-1.5-0.7-1.5-1.5s0.7-1.5,1.5-1.5h141.3c0.8,0,1.5,0.7,1.5,1.5
		S318.7,347.3,317.8,347.3z"/>
	<path style="fill:#479694;" d="M163.1,349.3c-0.8,0-1.5-0.7-1.5-1.5V149.9c0-0.8,0.7-1.5,1.5-1.5s1.5,0.7,1.5,1.5v197.9
		C164.6,348.7,163.9,349.3,163.1,349.3z"/>
	<path style="fill:#479694;" d="M178.1,333.9c-0.8,0-1.5-0.7-1.5-1.5v-167c0-0.8,0.7-1.5,1.5-1.5s1.5,0.7,1.5,1.5v166.9
		C179.6,333.2,178.9,333.9,178.1,333.9z"/>
	<path style="fill:#479694;" d="M170.6,340.3c-0.8,0-1.5-0.7-1.5-1.5V157.1c0-0.8,0.7-1.5,1.5-1.5s1.5,0.7,1.5,1.5v181.8
		C172.1,339.7,171.4,340.3,170.6,340.3z"/>
	<path style="fill:#479694;" d="M333.1,349.3c-0.8,0-1.5-0.7-1.5-1.5V149.9c0-0.8,0.7-1.5,1.5-1.5s1.5,0.7,1.5,1.5v197.9
		C334.6,348.7,333.9,349.3,333.1,349.3z"/>
	<path style="fill:#479694;" d="M318.1,333.9c-0.8,0-1.5-0.7-1.5-1.5v-167c0-0.8,0.7-1.5,1.5-1.5s1.5,0.7,1.5,1.5v166.9
		C319.6,333.2,318.9,333.9,318.1,333.9z"/>
	<path style="fill:#479694;" d="M325.6,340.3c-0.8,0-1.5-0.7-1.5-1.5V157.1c0-0.8,0.7-1.5,1.5-1.5s1.5,0.7,1.5,1.5v181.8
		C327.1,339.7,326.4,340.3,325.6,340.3z"/>
</g>
<g>
</g>
<g>
</g>
<g>
</g>
<g>
</g>
<g>
</g>
<g>
</g>
<g>
</g>
<g>
</g>
<g>
</g>
<g>
</g>
<g>
</g>
<g>
</g>
<g>
</g>
<g>
</g>
<g>
</g>
</svg>
