<svg id="Calque_3" data-name="Calque 3" xmlns="http://www.w3.org/2000/svg" viewBox="0 0 512 357.22"><defs><style>.cls-1{fill:#65a844;}.cls-2{fill:#d0e8f9;}.cls-3{fill:#c8d4db;}.cls-4{fill:#ecf0f1;}.cls-5{fill:#38454f;}</style></defs><title>soccer-scored</title><path class="cls-1" d="M0,256H512c0,141.36-114.64,256-256,256S0,397.36,0,256Z" transform="translate(0 -154.78)"/><path class="cls-2" d="M148.87,324.17l-9.34,7a5.84,5.84,0,1,0,7,9.34l9.34-7A5.84,5.84,0,0,0,148.87,324.17Z" transform="translate(0 -154.78)"/><path class="cls-2" d="M164.71,212.87l-8.26-8.26a5.84,5.84,0,1,0-8.26,8.26l8.26,8.26A5.84,5.84,0,0,0,164.71,212.87Z" transform="translate(0 -154.78)"/><path class="cls-2" d="M174.26,252.21a5.84,5.84,0,0,0,5.84-5.84V234.7a5.84,5.84,0,0,0-11.68,0v11.68A5.84,5.84,0,0,0,174.26,252.21Z" transform="translate(0 -154.78)"/><path class="cls-2" d="M174.26,287.24a5.84,5.84,0,0,0,5.84-5.84V269.73a5.84,5.84,0,0,0-11.68,0v11.68A5.84,5.84,0,0,0,174.26,287.24Z" transform="translate(0 -154.78)"/><path class="cls-2" d="M139.93,188.1l-8.26-8.26a5.84,5.84,0,0,0-8.26,8.26l8.26,8.26A5.84,5.84,0,0,0,139.93,188.1Z" transform="translate(0 -154.78)"/><path class="cls-2" d="M388.58,179.85a5.83,5.83,0,0,0-8.26,0l-8.26,8.26a5.84,5.84,0,1,0,8.26,8.26l8.26-8.26A5.83,5.83,0,0,0,388.58,179.85Z" transform="translate(0 -154.78)"/><path class="cls-2" d="M373.94,328.17L364,322a5.84,5.84,0,0,0-6.19,9.9l9.9,6.19A5.84,5.84,0,0,0,373.94,328.17Z" transform="translate(0 -154.78)"/><path class="cls-2" d="M337.74,287.24a5.84,5.84,0,0,0,5.84-5.84V269.73a5.84,5.84,0,1,0-11.68,0v11.68A5.84,5.84,0,0,0,337.74,287.24Z" transform="translate(0 -154.78)"/><path class="cls-2" d="M363.81,212.88a5.84,5.84,0,1,0-8.26-8.26l-8.26,8.26a5.84,5.84,0,0,0,8.26,8.27Z" transform="translate(0 -154.78)"/><path class="cls-2" d="M337.74,252.21a5.84,5.84,0,0,0,5.84-5.84V234.7a5.84,5.84,0,1,0-11.68,0v11.68A5.84,5.84,0,0,0,337.74,252.21Z" transform="translate(0 -154.78)"/><path class="cls-2" d="M344.23,309.6l-0.65-.41v-4.43a5.84,5.84,0,0,0-11.68,0v7.67a5.84,5.84,0,0,0,2.74,5l3.4,2.13A5.84,5.84,0,0,0,344.23,309.6Z" transform="translate(0 -154.78)"/><path class="cls-2" d="M221,306.59H209.29a5.84,5.84,0,1,0,0,11.68H221A5.84,5.84,0,0,0,221,306.59Z" transform="translate(0 -154.78)"/><path class="cls-2" d="M250.16,306.59h-5.84a5.84,5.84,0,1,0,0,11.68h5.84A5.84,5.84,0,0,0,250.16,306.59Z" transform="translate(0 -154.78)"/><path class="cls-2" d="M185.94,306.59H180.1v-1.83a5.84,5.84,0,0,0-11.68,0v4.75l-0.86.65a5.84,5.84,0,1,0,7,9.34l1.64-1.24h9.73A5.84,5.84,0,0,0,185.94,306.59Z" transform="translate(0 -154.78)"/><path class="cls-2" d="M314.39,306.59H302.71a5.84,5.84,0,0,0,0,11.68h11.68A5.84,5.84,0,0,0,314.39,306.59Z" transform="translate(0 -154.78)"/><path class="cls-3" d="M404.28,353.3H393.82a9.37,9.37,0,0,1-9.37-9.37V184H127.55v160a9.36,9.36,0,0,1-9.37,9.37H107.72a9.36,9.36,0,0,1-9.37-9.37V168.67a13.89,13.89,0,0,1,13.88-13.88H397.69a16,16,0,0,1,16,16V343.92A9.37,9.37,0,0,1,404.28,353.3Z" transform="translate(0 -154.78)"/><path class="cls-4" d="M297.27,293.66l-4.67,1.25-5.84-5.84,0.87-3.25a26,26,0,0,0-29.77,5.11l4,4-2.14,8-8,2.14-1-1a26.38,26.38,0,0,0-.58,5.46,26,26,0,0,0,5.73,16.19l5.95-1.59,5.84,5.84-1,3.91a25.56,25.56,0,0,0,22.54-1.49l-4-4,2.14-8,8-2.14,4,4A25.61,25.61,0,0,0,297.27,293.66Zm-15.78,20.9-8,2.14-5.84-5.84,2.14-8,8-2.14,5.84,5.84Z" transform="translate(0 -154.78)"/><polygon class="cls-5" points="269.81 148.1 267.68 156.08 273.52 161.92 281.49 159.78 283.63 151.8 277.79 145.97 269.81 148.1"/><path class="cls-5" d="M287.33,320.4l-2.14,8,4,4a26.22,26.22,0,0,0,10.11-10.11l-4-4Z" transform="translate(0 -154.78)"/><path class="cls-5" d="M292.6,294.91l4.67-1.25a26.24,26.24,0,0,0-9.64-7.84l-0.87,3.25Z" transform="translate(0 -154.78)"/><path class="cls-5" d="M259.7,302.89l2.14-8-4-4A26.25,26.25,0,0,0,250.75,304l1,1Z" transform="translate(0 -154.78)"/><path class="cls-5" d="M261.84,324.1l-5.95,1.59a26.22,26.22,0,0,0,10.74,8.15l1-3.91Z" transform="translate(0 -154.78)"/></svg>