<svg id="Calque_2" data-name="Calque 2" xmlns="http://www.w3.org/2000/svg" viewBox="0 0 509.67 435.62"><defs><style>.cls-1{fill:#65a844;}.cls-2{fill:#d89a00;}.cls-3{fill:#f2b408;}.cls-4{fill:#f7bb26;}.cls-5{fill:#774c2b;}.cls-6{fill:#825434;}.cls-7{fill:#5b361d;}.cls-8{fill:#633f26;}.cls-9{fill:#c48f2c;}.cls-10{fill:#d1983d;}</style></defs><title>soccer-fcl</title><path class="cls-1" d="M1.16,257.16H510.84C510.84,397.88,396.72,512,256,512S1.16,397.88,1.16,257.16Z" transform="translate(-1.16 -76.38)"/><path class="cls-2" d="M331.29,104A74.32,74.32,0,0,1,344.23,92.2a66,66,0,0,1,15.92-8.63,46.3,46.3,0,0,1,9.35-2.47,34.36,34.36,0,0,1,10.27-.1,30.05,30.05,0,0,1,10.48,3.49,33.37,33.37,0,0,1,8.53,7A41.19,41.19,0,0,1,402,95.69c0.41,0.72.92,1.44,1.34,2.26,0.1,0.21.41,0.82,0.62,1.13l0.62,1.23a34.83,34.83,0,0,1,3,10.27A41.1,41.1,0,0,1,405,130.72a74.25,74.25,0,0,1-8.63,16.54,135.67,135.67,0,0,1-11,14.07c-15.61,17.56-33.9,31.53-52.59,44.37a561.38,561.38,0,0,1-58.55,34.62L273.56,239a673.3,673.3,0,0,0,54.85-39.34c8.73-7,17.26-14.28,25.37-21.88a216,216,0,0,0,22.49-24.14,108.06,108.06,0,0,0,9-13.25,57.42,57.42,0,0,0,5.75-14,31.43,31.43,0,0,0,.72-13.35,25,25,0,0,0-1.85-6l-0.31-.72-0.31-.72a10.27,10.27,0,0,0-.82-1.44c-0.62-.92-1.13-1.85-1.75-2.67a17.87,17.87,0,0,0-9.45-6.68,32.77,32.77,0,0,0-13.87-.31A87.89,87.89,0,0,0,348,98.67c-5.24,1.85-10.37,4.11-15.51,6.47Z" transform="translate(-1.16 -76.38)"/><path class="cls-2" d="M180.71,104A74.32,74.32,0,0,0,167.77,92.2a66,66,0,0,0-15.92-8.63,46.3,46.3,0,0,0-9.35-2.47,34.36,34.36,0,0,0-10.27-.1,30.05,30.05,0,0,0-10.48,3.49,33.37,33.37,0,0,0-8.53,7A41.19,41.19,0,0,0,110,95.69c-0.41.72-.92,1.44-1.34,2.26-0.1.21-.41,0.82-0.62,1.13l-0.62,1.23a34.83,34.83,0,0,0-3,10.27A41.1,41.1,0,0,0,107,130.72a74.25,74.25,0,0,0,8.63,16.54,135.67,135.67,0,0,0,11,14.07c15.61,17.56,33.9,31.53,52.59,44.37a561.38,561.38,0,0,0,58.55,34.62l0.72-1.34a673.3,673.3,0,0,1-54.85-39.34c-8.73-7-17.26-14.28-25.37-21.88a216,216,0,0,1-22.49-24.14,108.06,108.06,0,0,1-9-13.25,57.42,57.42,0,0,1-5.75-14,31.43,31.43,0,0,1-.72-13.35,25,25,0,0,1,1.85-6l0.31-.72,0.31-.72a10.26,10.26,0,0,1,.82-1.44c0.62-.92,1.13-1.85,1.75-2.67a17.87,17.87,0,0,1,9.45-6.68,32.77,32.77,0,0,1,13.87-.31A87.89,87.89,0,0,1,164,98.67c5.24,1.85,10.37,4.11,15.51,6.47Z" transform="translate(-1.16 -76.38)"/><path class="cls-3" d="M325,182.18l22.6-95.83c-29.17-10-58.55-10-92.44-10s-63.27,0-92.44,10l22.6,95.83s10.27,48,43.86,76c0,0,15.1,28.76,10.27,47.25l-11,21.26,4.11,6.88s-10.27,22.6-31.53,33.59v7.5s15.1,9,52.59,9.55h3.08c37.49-.51,52.59-9.55,52.59-9.55v-7.6c-21.26-11-31.53-33.59-31.53-33.59l4.11-6.88L271,305.44c-4.83-18.49,10.27-47.25,10.27-47.25C314.75,230.15,325,182.18,325,182.18Z" transform="translate(-1.16 -76.38)"/><path class="cls-4" d="M256,76.38c-33.9,0-64.09,0-93.27,10l22.6,95.83s10.27,48,43.86,76c0,0,15.1,28.76,10.27,47.25l-11,21.26,4.11,6.88s-10.27,22.6-31.53,33.59v7.5s15.1,9,52.59,9.55H256V76.38Z" transform="translate(-1.16 -76.38)"/><polygon class="cls-5" points="352.31 338.14 157.36 338.14 168.15 299.42 341.53 299.42 352.31 338.14"/><polygon class="cls-6" points="254.84 338.14 157.36 338.14 168.15 299.42 254.84 299.42 254.84 338.14"/><rect class="cls-7" x="157.36" y="338.14" width="194.95" height="23.42"/><rect class="cls-8" x="157.36" y="338.14" width="97.58" height="23.42"/><polygon class="cls-5" points="334.95 316.77 174.72 316.77 183.55 285.04 326.12 285.04 334.95 316.77"/><polygon class="cls-6" points="254.84 316.77 174.72 316.77 183.55 285.04 254.84 285.04 254.84 316.77"/><rect class="cls-7" x="174.72" y="316.77" width="160.24" height="10.37"/><rect class="cls-8" x="174.72" y="316.77" width="80.12" height="10.37"/><path class="cls-9" d="M201.15,367.07v7.5s15.1,9,52.59,9.55h3.08c37.49-.51,52.59-9.55,52.59-9.55v-7.5s-18,8-53.1,8S201.15,367.07,201.15,367.07Z" transform="translate(-1.16 -76.38)"/><path class="cls-10" d="M201.15,367.07v7.5s15.1,9,52.59,9.55h2.36c-0.1,0,0-9.14,0-9.14C220.87,375.08,201.15,367.07,201.15,367.07Z" transform="translate(-1.16 -76.38)"/></svg>