<svg id="Calque_1" data-name="Calque 1" xmlns="http://www.w3.org/2000/svg" viewBox="0 0 2776.45 807.54"><defs><style>.cls-1{fill:#e74c3c;}.cls-2{fill:#fff;}</style></defs><title>fifachallenge_logo</title><path class="cls-1" d="M1069.66,1359.92q0-6-7.2-8.4l0.8-4.4h49.6q12.39,0,12.4,8a29.53,29.53,0,0,1-.4,4.2,44.61,44.61,0,0,1-1.2,5.4l-41.2,171.2q-2,8.8-2,11.6,0,6,7.2,8.4l-1.2,4.4h-49.2q-12.4,0-12.4-8.4a27.81,27.81,0,0,1,.4-3.8,42.84,42.84,0,0,1,1.2-5.4l42.4-178.4A14.06,14.06,0,0,0,1069.66,1359.92Zm57.2-66.4q11.19,0,11.2,8a23.29,23.29,0,0,1-.2,2.8q-0.21,1.6-.6,3.6l-5.6,23.6h-36.8q-8.4,0-11.8-1.8t-3.4-6.2v-2.6a6.7,6.7,0,0,1,.8-3l5.6-24.4h40.8Z" transform="translate(-387.17 -1013.55)"/><path class="cls-1" d="M1296.06,1313.12q-2,8-6.2,10.8t-14.6,2.8h-9.6a150.27,150.27,0,0,0-15.2.6,22.48,22.48,0,0,0-9,2.6,11.78,11.78,0,0,0-5,6,75.23,75.23,0,0,0-3.2,11.2h48.4l-6.4,27.2q-2.4,9.21-6.4,11.8t-14.8,2.6h-10.8q-6.81,0-10.8.4a14,14,0,0,0-6.4,2,10.75,10.75,0,0,0-3.8,4.8,48.8,48.8,0,0,0-2.6,8.4l-32,131.6q-2,8.8-2,11.6,0,6,7.2,8.4l-1.2,4.4h-49.2q-12.4,0-12.4-8.4a43.6,43.6,0,0,1,1.6-9.2l36.4-152.4h-16.8l8.8-36.4h3.2q8,0,11-2t5-9.6a147.31,147.31,0,0,1,8.6-23,56.23,56.23,0,0,1,10.4-15.2,32.49,32.49,0,0,1,13.6-8.2,63.65,63.65,0,0,1,18.6-2.4h70.4Z" transform="translate(-387.17 -1013.55)"/><path class="cls-1" d="M1345.26,1549.92a23.89,23.89,0,0,1-13,9.8q-8.2,2.6-26.2,2.6-28.8,0-41.6-10t-12.8-33.2a134.11,134.11,0,0,1,4.8-33.6,152.66,152.66,0,0,1,12.4-32.8q9.6-18.39,23.8-26t40.6-7.6h40.8q8,0,11-1.4t5.4-5.8a75,75,0,0,0,2.4-8,34.17,34.17,0,0,0,1.2-8q0-5.19-4.2-7t-16.2-1.8h-52q-14.8,0-14.8-10a23.8,23.8,0,0,1,.4-3.6,45.71,45.71,0,0,1,1.2-5.2l4.8-21.2h91.2q22.8,0,35,8.8t12.2,25.2a53.87,53.87,0,0,1-.6,8q-0.6,4-2.6,12l-32.4,134.8q-2,8.8-2,11.6,0,6,7.2,8.4l-1.2,4.4h-49.6q-12.4,0-12.4-8a33.34,33.34,0,0,1,1.2-7.6v-1.6a0.35,0.35,0,0,1,.4-0.4l5.2-22Zm35.6-96.8h-28q-12.4,0-19.4,2.2a24,24,0,0,0-11.4,7.4q-4.8,5.2-8.6,16a82,82,0,0,0-4.6,20.4q-0.4,8.4,5.2,12.2t19.6,3.8h32.8Z" transform="translate(-387.17 -1013.55)"/><path class="cls-2" d="M1679.26,1318.72a31.88,31.88,0,0,1-3,8.8,13.91,13.91,0,0,1-4.6,5,17.64,17.64,0,0,1-7.2,2.4,89.58,89.58,0,0,1-11.6.6h-33.6a126.78,126.78,0,0,0-20.4,1.4,38.86,38.86,0,0,0-14.2,5,35.47,35.47,0,0,0-10.2,9.8,81.52,81.52,0,0,0-8.4,15.8,304.33,304.33,0,0,0-13,37.6q-5.4,19.6-10.6,46a207.18,207.18,0,0,0-3.4,21.8q-1,10.2-1,15.8,0,18.4,13.2,25.6a36.46,36.46,0,0,0,9.2,2.8q4.8,0.81,16.8.8h38.4q16,0,23.4-3.6t13.4-13.6h6l-10.8,41.6q-2.8,13.6-12.4,17.2t-29.6,3.6h-28q-22,0-36-.8a154.08,154.08,0,0,1-23.2-2.8,60,60,0,0,1-14.6-4.8,47,47,0,0,1-10.2-7.2q-17.61-16.4-17.6-50.8a206.4,206.4,0,0,1,1.8-25.2q1.8-14.4,5.2-30.6t8.2-33.4q4.8-17.19,10.8-34,8.4-24.39,17.2-39.8t20.2-24.4a65.35,65.35,0,0,1,27-12.4q15.6-3.39,38-3.4h81.2Z" transform="translate(-387.17 -1013.55)"/><path class="cls-2" d="M1786.85,1358.72a43.52,43.52,0,0,1,6.4-7.2,20.91,20.91,0,0,1,8-4.2,54,54,0,0,1,11.8-1.8q7-.39,18.6-0.4,26.4,0,38,5.2a27.89,27.89,0,0,1,11.6,11,31.16,31.16,0,0,1,4.4,16.2q0,3.6-.4,7.6a51.39,51.39,0,0,1-1.6,8.4l-3.2,13.2-31.2,129.2q-2,8.8-2,11.6,0,6,7.2,8.4l-1.2,4.4h-49.6q-12.4,0-12.4-8a42.42,42.42,0,0,1,.4-4.4,21.12,21.12,0,0,1,1.2-5.2l29.6-124q2.4-10,2.4-15.6,0-7.59-5.6-11t-18.4-3.4a71.43,71.43,0,0,0-15.4,1.4,26.73,26.73,0,0,0-10.6,4.8,25.18,25.18,0,0,0-7.2,9.2,69.14,69.14,0,0,0-4.8,14.6l-28,117.2q-2,9.21-2,11.6,0,6,6.8,8.4l-0.8,4.4h-50.4q-12.4,0-12.4-8.8a14.12,14.12,0,0,1,.2-2.4c0.13-.8.46-2.26,1-4.4l0.8-4.8,54.8-228.8a22,22,0,0,0,.8-4.8q0-6-7.2-8l0.8-4.8h50.4q12.4,0,12.4,8.4c0,0.54-.07,1.54-0.2,3a41.88,41.88,0,0,1-.6,4.2l-0.4,2.4-16,66.4Z" transform="translate(-387.17 -1013.55)"/><path class="cls-2" d="M1988.85,1549.92a23.9,23.9,0,0,1-13,9.8q-8.2,2.6-26.2,2.6-28.8,0-41.6-10t-12.8-33.2a134.15,134.15,0,0,1,4.8-33.6,152.66,152.66,0,0,1,12.4-32.8q9.6-18.39,23.8-26t40.6-7.6h40.8q8,0,11-1.4t5.4-5.8a75.22,75.22,0,0,0,2.4-8,34.22,34.22,0,0,0,1.2-8q0-5.19-4.2-7t-16.2-1.8h-52q-14.8,0-14.8-10a23.68,23.68,0,0,1,.4-3.6,45.59,45.59,0,0,1,1.2-5.2l4.8-21.2H2048q22.8,0,35,8.8t12.2,25.2a53.74,53.74,0,0,1-.6,8q-0.6,4-2.6,12l-32.4,134.8q-2,8.8-2,11.6,0,6,7.2,8.4l-1.2,4.4H2014q-12.4,0-12.4-8a33.35,33.35,0,0,1,1.2-7.6v-1.6a0.35,0.35,0,0,1,.4-0.4l5.2-22Zm35.6-96.8h-28q-12.4,0-19.4,2.2a24,24,0,0,0-11.4,7.4q-4.8,5.2-8.6,16a82,82,0,0,0-4.6,20.4q-0.4,8.4,5.2,12.2t19.6,3.8H2010Z" transform="translate(-387.17 -1013.55)"/><path class="cls-2" d="M2165.25,1535.92a45.86,45.86,0,0,0-1.6,7,37.47,37.47,0,0,0-.4,4.6q0,6,6.8,8.4l-0.8,4.4H2120q-12.81,0-12.8-8a28,28,0,0,1,.4-3.8q0.4-2.6.8-4.6l54.4-226q2-8.79,2-11.6,0-6-7.2-8l1.2-4.8h48.8q12.8,0,12.8,8c0,0.54-.07,1.4-0.2,2.6s-0.34,2.47-.6,3.8Z" transform="translate(-387.17 -1013.55)"/><path class="cls-2" d="M2270.44,1535.92a45.39,45.39,0,0,0-1.6,7,37.06,37.06,0,0,0-.4,4.6q0,6,6.8,8.4l-0.8,4.4h-49.2q-12.81,0-12.8-8a27.66,27.66,0,0,1,.4-3.8c0.26-1.73.53-3.26,0.8-4.6l54.4-226q2-8.79,2-11.6,0-6-7.2-8l1.2-4.8h48.8q12.8,0,12.8,8c0,0.54-.07,1.4-0.2,2.6s-0.34,2.47-.6,3.8Z" transform="translate(-387.17 -1013.55)"/><path class="cls-2" d="M2378.84,1478.72a51.58,51.58,0,0,0-1.2,6.6,53.31,53.31,0,0,0-.4,6.2q0,13.2,9.2,18.8,6.8,5.2,33.2,5.2,13.59,0,23.6-1a83.64,83.64,0,0,0,17.4-3.4,47.53,47.53,0,0,0,12.8-6.2,55.54,55.54,0,0,0,10.2-9.4h4.8l-7.2,29.2q-2,8-3.4,13a41.11,41.11,0,0,1-3,8,20.27,20.27,0,0,1-3.4,4.8,21.68,21.68,0,0,1-4.6,3.4q-7.6,4.41-22.4,6.4t-38.8,2q-22,0-35.8-2t-22.2-6.4a43.15,43.15,0,0,1-19-19.4q-6.6-13-6.6-31a183.1,183.1,0,0,1,3.2-32.2,340.76,340.76,0,0,1,8.2-35,271.94,271.94,0,0,1,11.6-32.4q6.6-15.2,13.8-24.4a92.28,92.28,0,0,1,15.6-15.8,76.67,76.67,0,0,1,18.8-10.8,98.41,98.41,0,0,1,23.6-6,220.41,220.41,0,0,1,29.6-1.8q36.39,0,52.4,13t16,41.8a137.64,137.64,0,0,1-.8,13.8,149.92,149.92,0,0,1-2.4,15.4q-1.6,7.6-3.4,14.2a59.08,59.08,0,0,1-3.8,10.6,16.22,16.22,0,0,1-9,7.6q-5.8,2-21,2h-92Zm86-50.4q2-8,2.8-12.6a52.61,52.61,0,0,0,.8-9q0-22.8-30-22.8a61,61,0,0,0-17.6,2.2,32.14,32.14,0,0,0-12.6,7.2,42.9,42.9,0,0,0-9.4,13.6,120.78,120.78,0,0,0-7.2,21.4h73.2Z" transform="translate(-387.17 -1013.55)"/><path class="cls-2" d="M2630,1361.92a61.3,61.3,0,0,1,7.2-9.2,22.41,22.41,0,0,1,7.8-5,38.2,38.2,0,0,1,11.6-2.2q7-.39,19-0.4,17.6,0,28.2,1.8t16.6,5.8q12,8.8,12,23.2a68.49,68.49,0,0,1-1.2,11.6q-1.2,6.81-3.2,16.4l-32,132q-2,8.8-2,11.6,0,6,7.2,8.4l-1.2,4.4h-49.6q-12.4,0-12.4-8a42.42,42.42,0,0,1,.4-4.4,21.12,21.12,0,0,1,1.2-5.2l30.8-128.8a57.38,57.38,0,0,0,1.2-6.2,39.89,39.89,0,0,0,.4-5q0-14-26-14a67,67,0,0,0-14.6,1.4,23.72,23.72,0,0,0-10.4,5,28.45,28.45,0,0,0-7,9.4,69.23,69.23,0,0,0-4.8,14.6l-28,116.8q-2,8.8-2,11.6,0,6,7.2,8.4l-1.2,4.4h-50q-12.4,0-12.4-8.4c0-.53.13-1.8,0.4-3.8a28.71,28.71,0,0,1,1.2-5.4l41.2-171.6v-0.4a3.56,3.56,0,0,1,.4-1.6l0.8-4.8a14.06,14.06,0,0,0,.8-4.4q0-6-7.2-8.4l1.2-4.4h50q12.39,0,12.4,8a17.28,17.28,0,0,1-.4,2.8c-0.27,1.34-.54,2.8-0.8,4.4a3.53,3.53,0,0,0-.4,1.6v0.8l-3.2,13.2Z" transform="translate(-387.17 -1013.55)"/><path class="cls-2" d="M2754.43,1556.32a18.88,18.88,0,0,0,4,8,18.3,18.3,0,0,0,8.4,5,68.15,68.15,0,0,0,14.2,2.6q8.6,0.8,21.4.8,32,0,44-6,6.4-2.8,9-7.4t5.8-16.6l8.4-35.2-15.6,26.4q-4,6.81-7.6,9.4t-10.4,4.2a68.3,68.3,0,0,1-13.4,2.2q-7.8.6-15.4,0.6-18,0-27.8-3.8t-17-13.8a45.18,45.18,0,0,1-7.6-15.2,73.36,73.36,0,0,1-2.4-20,168.93,168.93,0,0,1,2.4-26.8q2.4-14.79,6.2-29.4a241.57,241.57,0,0,1,9-27.8,124.89,124.89,0,0,1,11.2-22.4q14.79-23.6,35.8-33.8t54.2-10.2h72.4q9.2,0,13.2,2a7,7,0,0,1,4,6.8,25.48,25.48,0,0,1-.4,4,31.92,31.92,0,0,1-1.2,4.8l-45.2,189.2q-3.21,12.8-6.4,21.8a67.67,67.67,0,0,1-7.4,15.2,40.14,40.14,0,0,1-9.4,10,57.38,57.38,0,0,1-12,6.6q-11.2,4.4-30.6,6.6a384.76,384.76,0,0,1-43,2.2h-16q-8,0-16-.8-20-1.6-27.6-5t-7.6-11a15.07,15.07,0,0,1,.4-3.6l1.2-4.8,8.4-34.8h6.4Zm116-166.4q-19.2,0-29.2,6.63t-17.6,24.28a147.29,147.29,0,0,0-5.8,15.46q-2.61,8.23-4.4,16.26t-3,15.45a81.42,81.42,0,0,0-1.2,12.64q0,22.88,26,22.88,35.6,0,39.6-18.46l22.8-95.14h-27.2Z" transform="translate(-387.17 -1013.55)"/><path class="cls-2" d="M3027.62,1478.72a51.56,51.56,0,0,0-1.2,6.6,53.29,53.29,0,0,0-.4,6.2q0,13.2,9.2,18.8,6.8,5.2,33.2,5.2,13.59,0,23.6-1a83.64,83.64,0,0,0,17.4-3.4,47.53,47.53,0,0,0,12.8-6.2,55.54,55.54,0,0,0,10.2-9.4h4.8l-7.2,29.2q-2,8-3.4,13a41.11,41.11,0,0,1-3,8,20.27,20.27,0,0,1-3.4,4.8,21.68,21.68,0,0,1-4.6,3.4q-7.6,4.41-22.4,6.4t-38.8,2q-22,0-35.8-2t-22.2-6.4a43.14,43.14,0,0,1-19-19.4q-6.6-13-6.6-31a183.1,183.1,0,0,1,3.2-32.2,340.76,340.76,0,0,1,8.2-35,271.94,271.94,0,0,1,11.6-32.4q6.6-15.2,13.8-24.4a92.28,92.28,0,0,1,15.6-15.8,76.67,76.67,0,0,1,18.8-10.8,98.41,98.41,0,0,1,23.6-6,220.41,220.41,0,0,1,29.6-1.8q36.39,0,52.4,13t16,41.8a137.66,137.66,0,0,1-.8,13.8,149.92,149.92,0,0,1-2.4,15.4q-1.6,7.6-3.4,14.2a59.07,59.07,0,0,1-3.8,10.6,16.22,16.22,0,0,1-9,7.6q-5.8,2-21,2h-92Zm86-50.4q2-8,2.8-12.6a52.62,52.62,0,0,0,.8-9q0-22.8-30-22.8a61,61,0,0,0-17.6,2.2,32.14,32.14,0,0,0-12.6,7.2,42.9,42.9,0,0,0-9.4,13.6,120.78,120.78,0,0,0-7.2,21.4h73.2Z" transform="translate(-387.17 -1013.55)"/><path class="cls-1" d="M1021.9,1391.14l-7.54,31q-2,6.75-5.36,9.13t-12.11,2.38H937.77q-10.72,0-15.87,4t-7.54,14.29l-19,79.77q-2,8.73-2,11.91,0,7.14,7.54,9.52l-1.59,5.16H844.51q-12.71,0-12.7-8.34c0-.79.06-2,0.2-3.57a14.91,14.91,0,0,1,1-4.37l59.22-248.43h160.24l-6,25q-2,9.13-6.55,11.91t-16.87,2.78H942.93L929,1391.14h92.86Z" transform="translate(-387.17 -1013.55)"/><path class="cls-2" d="M686,1276.89c20.58,33.84,89.33,127.78,99.52,167.22,1.69,6.46,6.61,18.59,2.45,23-7.36,7.84-61.29,76.38-125,145.13-6.41,6.92-36,6.54-36,6.54s-56.57-19.44-75.44-29.42c-17.27-9.14-61-32.36-72.73-46.73S437,1401.44,497.91,1326.59C527.76,1289.94,679.1,1265.53,686,1276.89Z" transform="translate(-387.17 -1013.55)"/><path class="cls-2" d="M505.45,1119c-40.86,18.54-104,128.78-106.9,144.16-0.87,4.42,4.7,17.1,9.14,16.34,13.4-2.3,33.68-6.87,41.19-16.67,11.57-15.07,35-100.68,69-125.85,3.63-2.68,2.58-8.31,0-18C516.55,1114.12,511,1116.49,505.45,1119Z" transform="translate(-387.17 -1013.55)"/><path class="cls-2" d="M387.77,1532.19c-6.87,31.39,47.22,120.48,54.58,126.51,3.24,2.63,19.79,4.75,20.61,0,2.27-13.74-7.2-47.39-13.41-65.71-4.7-13.82-23.32-36.87-45.25-57.08C401.18,1533.05,388.44,1529.07,387.77,1532.19Z" transform="translate(-387.17 -1013.55)"/><path class="cls-2" d="M739.47,1135.7c5.47,22,71.61-28.45,203.48,15.2,17.08,5.64,40.65-81.57,20.12-97.09-90.22-68.15-270.67-39.86-279,11.77C679.18,1096,723.79,1072.44,739.47,1135.7Z" transform="translate(-387.17 -1013.55)"/><path class="cls-2" d="M941.49,1742.21c3.45-1.13,6.11,15.14,16.68,22.06,14.2,9.32,19.23,15.58,17.64,16.93-65.91,56.18-299.58,41.42-300.57,25.23s40.42-23.6,62.87-46.66C755.76,1741.62,836.08,1776.53,941.49,1742.21Z" transform="translate(-387.17 -1013.55)"/></svg>