<svg id="Layer_1" data-name="Layer 1" xmlns="http://www.w3.org/2000/svg" viewBox="0 0 511.11 333.78"><defs><style>.cls-1{fill:#65a844;}.cls-2{fill:#3a3a3a;}.cls-3{fill:#545454;}.cls-4{fill:#fff;}.cls-5{fill:#232323;}.cls-6{fill:#f4f4f4;}.cls-7{fill:#e0e1e2;}.cls-8{fill:#434444;}.cls-9{fill:#206982;}</style></defs><title>soccer-foot</title><path class="cls-1" d="M1,256.45H512.09C512.09,397.56,397.65,512,256.54,512S1,397.56,1,256.45Z" transform="translate(-0.98 -178.22)"/><path class="cls-2" d="M138.22,318.3c0,1.75-1,3.09-2.37,3.09h-10.3c-1.34,0-2.37-1.44-2.37-3.09l-2.27-13.18A3.1,3.1,0,0,1,124,302h13.39a3.1,3.1,0,0,1,3.09,3.09Z" transform="translate(-0.98 -178.22)"/><path class="cls-2" d="M107,316.24c0,1.75-1,3.09-2.37,3.09H94.34c-1.34,0-2.37-1.44-2.37-3.09L89.7,303.06A3.1,3.1,0,0,1,92.79,300h13.39a3.1,3.1,0,0,1,3.09,3.09Z" transform="translate(-0.98 -178.22)"/><path class="cls-2" d="M369.26,318.71c0.1,1.75-.93,3.19-2.27,3.19l-10.3.41c-1.34,0-2.47-1.34-2.47-3.09l-2.78-13.08a3.12,3.12,0,0,1,3-3.3l13.39-.52a3,3,0,0,1,3.19,3Z" transform="translate(-0.98 -178.22)"/><path class="cls-2" d="M333.82,318.3c0,1.75-1,3.09-2.37,3.09h-10.3c-1.34,0-2.37-1.44-2.37-3.09l-2.27-13.18a3.1,3.1,0,0,1,3.09-3.09H333a3.1,3.1,0,0,1,3.09,3.09Z" transform="translate(-0.98 -178.22)"/><path class="cls-2" d="M436.21,307.18c0.31,1.75-.52,3.3-1.75,3.5l-10.09,2c-1.34.21-2.58-.93-3-2.68l-4.64-12.57a3.29,3.29,0,0,1,2.47-3.71l13.18-2.47a3.29,3.29,0,0,1,3.71,2.47Z" transform="translate(-0.98 -178.22)"/><path class="cls-2" d="M405.72,313.77c0.21,1.75-.72,3.19-2.06,3.4l-10.2,1.24c-1.34.21-2.58-1.13-2.78-2.78l-3.81-12.88a3.14,3.14,0,0,1,2.78-3.5l13.29-1.65a3.14,3.14,0,0,1,3.5,2.78Z" transform="translate(-0.98 -178.22)"/><path class="cls-2" d="M233.5,190.37c-3.4,4.74-32.76,39.66-55.52,44.29-23.9,4.94-69.53-4.33-75.19-6.7s-19.47-9.89-20.5-14.63c-0.52-2.37,1.75-3.3,3.19-3.4H86s31.93,7.11,57.89,5.87c0,0,63.76-6.49,86.63-26.27C230.72,189.65,236.28,187.69,233.5,190.37Z" transform="translate(-0.98 -178.22)"/><path class="cls-3" d="M75.18,221S69.72,210.25,85.58,210c-1.44.1-3.71,1-3.19,3.4,1,4.74,14.83,12.36,20.5,14.63s51.19,11.54,75.19,6.7C200.84,230,226.6,195.11,230,190.47c2.68-2.68,7.93-4.84,15.24-8.65s16.48-3.61,16.48-3.61L401.81,242.7s10.61,4.74,26.58,4.12c0,0,40.79-1.24,50.27,20.39,0,0-15,23-61.91,31.73,0,0-348.77,29-350.93-6.9-0.1-2.47-.31-5.15-0.31-8C65.39,283.9,60.14,244.86,75.18,221Z" transform="translate(-0.98 -178.22)"/><path class="cls-4" d="M217.22,295.85c7.52,0.1,14.63.21,20.5,0.21l39.66-65.82L262,222.3Z" transform="translate(-0.98 -178.22)"/><path class="cls-4" d="M244.83,296.26c5.25,0.1,8.55.1,8.55,0.1,3.3,0.41,7.11.82,11.33,1.13L298,241l-15.35-7.93Z" transform="translate(-0.98 -178.22)"/><path class="cls-4" d="M271.4,297.91c6.18,0.41,13.08.62,20.09,0.82l27-47.18-15.35-7.93Z" transform="translate(-0.98 -178.22)"/><path class="cls-5" d="M285.82,190.58L259,196.45h0a3.25,3.25,0,0,0,1.75-.93l9-8.76,7.42-1.65,9,4.12Z" transform="translate(-0.98 -178.22)"/><path class="cls-6" d="M281.81,210.15v0Z" transform="translate(-0.98 -178.22)"/><path class="cls-6" d="M286.34,213.44h0Z" transform="translate(-0.98 -178.22)"/><path class="cls-6" d="M283.56,213.14c0.1,0,.1.1,0.21,0.1A0.32,0.32,0,0,1,283.56,213.14Z" transform="translate(-0.98 -178.22)"/><path class="cls-6" d="M281.91,209.43v0.41A0.31,0.31,0,0,1,281.91,209.43Z" transform="translate(-0.98 -178.22)"/><path class="cls-6" d="M284.38,213.44a0.21,0.21,0,0,1,.21.1C284.48,213.55,284.38,213.55,284.38,213.44Z" transform="translate(-0.98 -178.22)"/><path class="cls-6" d="M282.11,211.49a0.36,0.36,0,0,0,.1.21A0.32,0.32,0,0,1,282.11,211.49Z" transform="translate(-0.98 -178.22)"/><path class="cls-6" d="M282.94,212.72l0.21,0.21A0.39,0.39,0,0,0,282.94,212.72Z" transform="translate(-0.98 -178.22)"/><path class="cls-6" d="M281.91,210.77c0,0.1.1,0.21,0.1,0.31A0.38,0.38,0,0,1,281.91,210.77Z" transform="translate(-0.98 -178.22)"/><path class="cls-6" d="M282.42,212.11h0l0.1,0.1Z" transform="translate(-0.98 -178.22)"/><path class="cls-5" d="M305,200.78L287.37,213h-0.1a3.63,3.63,0,0,0,1.55-2.27l1.85-8.76,9.27-6.39,5.36,2.47Z" transform="translate(-0.98 -178.22)"/><path class="cls-5" d="M327.13,212.52l-18.85,13.91h-0.1a3.46,3.46,0,0,0,1.44-2.58l0.82-8,12.88-9.48,4.33,2Z" transform="translate(-0.98 -178.22)"/><path class="cls-6" d="M302.72,224.16a0.38,0.38,0,0,0,.1.31C302.72,224.47,302.72,224.36,302.72,224.16Z" transform="translate(-0.98 -178.22)"/><path class="cls-6" d="M304.57,226.73a0.36,0.36,0,0,1,.21.1A0.21,0.21,0,0,1,304.57,226.73Z" transform="translate(-0.98 -178.22)"/><path class="cls-6" d="M302.92,224.88c0,0.1.1,0.21,0.1,0.31A0.38,0.38,0,0,1,302.92,224.88Z" transform="translate(-0.98 -178.22)"/><path class="cls-6" d="M307.14,227h0.21C307.25,226.94,307.25,226.94,307.14,227Z" transform="translate(-0.98 -178.22)"/><path class="cls-6" d="M306.22,227.14h0Z" transform="translate(-0.98 -178.22)"/><path class="cls-6" d="M302.61,223.44v0Z" transform="translate(-0.98 -178.22)"/><path class="cls-6" d="M303.33,225.7c0-.1-0.1-0.1-0.1-0.21a0.36,0.36,0,0,0,.1.21h0Z" transform="translate(-0.98 -178.22)"/><path class="cls-6" d="M304,226.32h0Z" transform="translate(-0.98 -178.22)"/><path class="cls-6" d="M305.29,227a0.38,0.38,0,0,1,.31.1A0.38,0.38,0,0,0,305.29,227Z" transform="translate(-0.98 -178.22)"/><path class="cls-6" d="M324.35,233.84c0,0.1.1,0.21,0.1,0.31C324.45,234,324.35,233.94,324.35,233.84Z" transform="translate(-0.98 -178.22)"/><path class="cls-5" d="M349.38,221.48L329.7,235.59h-0.1a3.49,3.49,0,0,0,1.55-2.37l1.24-8.34,12.15-8.76,4.74,2.16Z" transform="translate(-0.98 -178.22)"/><path class="cls-6" d="M324.76,234.77c0-.1-0.1-0.1-0.1-0.21a0.32,0.32,0,0,1,.1.21h0Z" transform="translate(-0.98 -178.22)"/><path class="cls-6" d="M325.38,235.38a0.21,0.21,0,0,0,.21.1A0.36,0.36,0,0,1,325.38,235.38Z" transform="translate(-0.98 -178.22)"/><path class="cls-6" d="M327.64,236.21h0Z" transform="translate(-0.98 -178.22)"/><path class="cls-6" d="M326,235.8c0.1,0,.21.1,0.31,0.1A0.38,0.38,0,0,1,326,235.8Z" transform="translate(-0.98 -178.22)"/><path class="cls-6" d="M326.72,236.11c0.1,0,.21.1,0.31,0.1A0.38,0.38,0,0,0,326.72,236.11Z" transform="translate(-0.98 -178.22)"/><path class="cls-6" d="M328.67,236.11h0Z" transform="translate(-0.98 -178.22)"/><path class="cls-6" d="M324.14,232.4v0Z" transform="translate(-0.98 -178.22)"/><path class="cls-6" d="M324.14,233.22a0.38,0.38,0,0,0,.1.31A0.38,0.38,0,0,0,324.14,233.22Z" transform="translate(-0.98 -178.22)"/><path class="cls-5" d="M376.16,231.88L353.7,248.47h0a3.66,3.66,0,0,0,1.44-3l-2.27-5.77,16.89-11.95,6.18,2.88Z" transform="translate(-0.98 -178.22)"/><path class="cls-6" d="M354.84,250a0.21,0.21,0,0,0,.21-0.1A0.21,0.21,0,0,1,354.84,250Z" transform="translate(-0.98 -178.22)"/><path class="cls-6" d="M350.3,246.82a0.93,0.93,0,0,0,.1.52A1.12,1.12,0,0,1,350.3,246.82Z" transform="translate(-0.98 -178.22)"/><path class="cls-6" d="M352.16,249.81a0.36,0.36,0,0,1,.21.1A0.32,0.32,0,0,0,352.16,249.81Z" transform="translate(-0.98 -178.22)"/><path class="cls-6" d="M353.81,250.22h0Z" transform="translate(-0.98 -178.22)"/><path class="cls-6" d="M351.54,249.29l0.21,0.21A0.39,0.39,0,0,1,351.54,249.29Z" transform="translate(-0.98 -178.22)"/><path class="cls-6" d="M352.88,250.11a0.21,0.21,0,0,1,.21.1A0.21,0.21,0,0,0,352.88,250.11Z" transform="translate(-0.98 -178.22)"/><path class="cls-6" d="M350.41,247.54v0Z" transform="translate(-0.98 -178.22)"/><path class="cls-6" d="M350.61,248.16a0.1,0.1,0,0,0,.1.1A0.1,0.1,0,0,1,350.61,248.16Z" transform="translate(-0.98 -178.22)"/><path class="cls-6" d="M351,248.78h0Z" transform="translate(-0.98 -178.22)"/><path class="cls-5" d="M382.44,260.31a3.35,3.35,0,0,0,.41-2.27l-1.44-10.92,6-11.23,6.49,3-11.43,21.42h0Z" transform="translate(-0.98 -178.22)"/><path class="cls-6" d="M382.44,262.27a0.38,0.38,0,0,0,.1.31A0.38,0.38,0,0,1,382.44,262.27Z" transform="translate(-0.98 -178.22)"/><path class="cls-2" d="M259.76,195V194.7c0-.1.1-0.21,0.1-0.31s0.1-.21.1-0.31a0.55,0.55,0,0,1,.21-0.31c0.1-.1.1-0.21,0.21-0.31a0.39,0.39,0,0,1,.21-0.21,0.55,0.55,0,0,0,.21-0.31v-0.1l10.51-10.2,6.9,3.19-3.5,3.4-9,8.76a3.25,3.25,0,0,1-1.75.93c-0.21,0-.52.1-0.72,0.1a1.31,1.31,0,0,1-.62-0.1,0.21,0.21,0,0,1-.21-0.1c-0.1,0-.31-0.1-0.41-0.1a0.36,0.36,0,0,1-.21-0.1c-0.1-.1-0.21-0.1-0.31-0.21s-0.1-.1-0.21-0.1L261,198a0.1,0.1,0,0,1-.1-0.1c-0.1-.21-0.31-0.31-0.41-0.52h0l-0.31-.62c0-.1,0-0.21-0.1-0.21a2.34,2.34,0,0,1-.1-0.41v-0.72A0.5,0.5,0,0,1,259.76,195Z" transform="translate(-0.98 -178.22)"/><path class="cls-7" d="M282.53,212.21a1.55,1.55,0,0,0,.41.41A0.8,0.8,0,0,1,282.53,212.21Z" transform="translate(-0.98 -178.22)"/><path class="cls-7" d="M284.59,213.55h0c0.21,0,.52.1,0.72,0.1A2,2,0,0,1,284.59,213.55Z" transform="translate(-0.98 -178.22)"/><path class="cls-7" d="M283.14,212.83c0.1,0.1.31,0.21,0.41,0.31C283.45,213,283.25,212.93,283.14,212.83Z" transform="translate(-0.98 -178.22)"/><path class="cls-7" d="M283.76,213.24c0.21,0.1.31,0.1,0.52,0.21A1.74,1.74,0,0,1,283.76,213.24Z" transform="translate(-0.98 -178.22)"/><path class="cls-7" d="M281.81,210.46v0Z" transform="translate(-0.98 -178.22)"/><path class="cls-7" d="M281.81,209.84v0Z" transform="translate(-0.98 -178.22)"/><path class="cls-7" d="M285.31,213.65c0.31,0,.62-0.1.93-0.1C286,213.55,285.62,213.65,285.31,213.65Z" transform="translate(-0.98 -178.22)"/><path class="cls-7" d="M286.44,213.44a2.07,2.07,0,0,0,.82-0.41A2.07,2.07,0,0,1,286.44,213.44Z" transform="translate(-0.98 -178.22)"/><path class="cls-7" d="M282.22,211.69a1.51,1.51,0,0,1,.21.41A1.47,1.47,0,0,1,282.22,211.69Z" transform="translate(-0.98 -178.22)"/><path class="cls-7" d="M281.91,211.08a2.34,2.34,0,0,1,.1.41A0.62,0.62,0,0,0,281.91,211.08Z" transform="translate(-0.98 -178.22)"/><path class="cls-2" d="M287.88,190.17l-1.75-.82-0.31,1.24-3.91,18.75v1.44c0,0.1.1,0.21,0.1,0.31a2.34,2.34,0,0,1,.1.41,0.36,0.36,0,0,0,.1.21,1.51,1.51,0,0,1,.21.41,0.1,0.1,0,0,0,.1.1,1.55,1.55,0,0,0,.41.41l0.21,0.21c0.1,0.1.31,0.21,0.41,0.31s0.1,0.1.21,0.1,0.31,0.1.52,0.21a0.21,0.21,0,0,1,.21.1,2.27,2.27,0,0,0,.82.1c0.31,0,.62-0.1.93-0.1h0.1a2.07,2.07,0,0,0,.82-0.41,3.63,3.63,0,0,0,1.55-2.27l1.85-8.76,2.06-9.68Z" transform="translate(-0.98 -178.22)"/><path class="cls-7" d="M304.78,226.84c0.1,0.1.31,0.1,0.41,0.21A1.51,1.51,0,0,0,304.78,226.84Z" transform="translate(-0.98 -178.22)"/><path class="cls-7" d="M304,226.42c0.21,0.1.31,0.21,0.52,0.31A2.25,2.25,0,0,0,304,226.42Z" transform="translate(-0.98 -178.22)"/><path class="cls-7" d="M303,225.19c0.1,0.1.1,0.21,0.21,0.31A0.55,0.55,0,0,1,303,225.19Z" transform="translate(-0.98 -178.22)"/><path class="cls-7" d="M303.33,225.81a2.43,2.43,0,0,0,.52.52Z" transform="translate(-0.98 -178.22)"/><path class="cls-7" d="M305.81,227.14c-0.1,0-.21,0-0.21-0.1,0.21,0,.41.1,0.62,0.1h-0.41Z" transform="translate(-0.98 -178.22)"/><path class="cls-7" d="M306.22,227.14h0a4.53,4.53,0,0,0,1-.21A2,2,0,0,1,306.22,227.14Z" transform="translate(-0.98 -178.22)"/><path class="cls-7" d="M302.61,223.85v0.31A0.33,0.33,0,0,0,302.61,223.85Z" transform="translate(-0.98 -178.22)"/><path class="cls-7" d="M307.35,226.94c0.31-.1.62-0.31,0.93-0.41A3.66,3.66,0,0,1,307.35,226.94Z" transform="translate(-0.98 -178.22)"/><path class="cls-7" d="M302.72,224.57c0,0.1.1,0.21,0.1,0.31A0.38,0.38,0,0,0,302.72,224.57Z" transform="translate(-0.98 -178.22)"/><path class="cls-2" d="M305.19,198.1l-2.58,25.13v0.93a0.38,0.38,0,0,0,.1.31c0,0.1.1,0.21,0.1,0.31s0.1,0.21.1,0.31,0.1,0.21.21,0.31,0.1,0.21.21,0.31a2.43,2.43,0,0,0,.52.52,0.1,0.1,0,0,1,.1.1c0.21,0.1.31,0.21,0.52,0.31a0.36,0.36,0,0,1,.21.1c0.1,0.1.31,0.1,0.41,0.21a0.38,0.38,0,0,1,.31.1c0.21,0,.41.1,0.62,0.1h0a4.53,4.53,0,0,0,1-.21h0.21c0.31-.1.62-0.31,0.93-0.41a3.46,3.46,0,0,0,1.44-2.58L312,201.19Z" transform="translate(-0.98 -178.22)"/><path class="cls-7" d="M324.76,234.77c0.21,0.21.31,0.41,0.52,0.62A2.73,2.73,0,0,0,324.76,234.77Z" transform="translate(-0.98 -178.22)"/><path class="cls-7" d="M324.45,234.15c0.1,0.1.1,0.31,0.21,0.41A1.47,1.47,0,0,0,324.45,234.15Z" transform="translate(-0.98 -178.22)"/><path class="cls-7" d="M324.14,232.81v0Z" transform="translate(-0.98 -178.22)"/><path class="cls-7" d="M324.24,233.53c0,0.1.1,0.21,0.1,0.31C324.35,233.74,324.24,233.63,324.24,233.53Z" transform="translate(-0.98 -178.22)"/><path class="cls-7" d="M328.78,236.11a2.07,2.07,0,0,0,.82-0.41A6.11,6.11,0,0,1,328.78,236.11Z" transform="translate(-0.98 -178.22)"/><path class="cls-7" d="M325.58,235.49c0.1,0.1.31,0.21,0.41,0.31A1.42,1.42,0,0,1,325.58,235.49Z" transform="translate(-0.98 -178.22)"/><path class="cls-7" d="M327.64,236.21h0c0.31,0,.62-0.1.93-0.1A2.29,2.29,0,0,1,327.64,236.21Z" transform="translate(-0.98 -178.22)"/><path class="cls-7" d="M326.2,235.9c0.1,0.1.31,0.1,0.41,0.21A1.51,1.51,0,0,0,326.2,235.9Z" transform="translate(-0.98 -178.22)"/><path class="cls-7" d="M327.13,236.21h-0.21c0.21,0,.41.1,0.72,0.1A0.77,0.77,0,0,0,327.13,236.21Z" transform="translate(-0.98 -178.22)"/><path class="cls-2" d="M330.73,209.84l-3-1.34-0.62,4-3,19.67v0.93a0.38,0.38,0,0,0,.1.31c0,0.1.1,0.21,0.1,0.31s0.1,0.21.1,0.31,0.1,0.31.21,0.41,0.1,0.1.1,0.21c0.21,0.21.31,0.41,0.52,0.62a0.21,0.21,0,0,0,.21.1c0.1,0.1.31,0.21,0.41,0.31s0.21,0.1.31,0.1,0.31,0.1.41,0.21,0.21,0.1.31,0.1,0.41,0.1.72,0.1h0c0.31,0,.62-0.1.93-0.1h0.21a2.07,2.07,0,0,0,.82-0.41,3.49,3.49,0,0,0,1.55-2.37l1.24-8.34,2-13.39Z" transform="translate(-0.98 -178.22)"/><path class="cls-7" d="M353.81,250.22a1.53,1.53,0,0,1-.72-0.1,1.75,1.75,0,0,0,.72.1h0Z" transform="translate(-0.98 -178.22)"/><path class="cls-7" d="M350.72,248.26c0.1,0.21.21,0.31,0.31,0.52A0.7,0.7,0,0,1,350.72,248.26Z" transform="translate(-0.98 -178.22)"/><path class="cls-7" d="M351,248.88a1.55,1.55,0,0,0,.41.41A1.55,1.55,0,0,0,351,248.88Z" transform="translate(-0.98 -178.22)"/><path class="cls-7" d="M352.36,249.91c0.21,0.1.31,0.1,0.52,0.21C352.67,250,352.57,250,352.36,249.91Z" transform="translate(-0.98 -178.22)"/><path class="cls-7" d="M355,250a2.11,2.11,0,0,0,.93-0.52A4.17,4.17,0,0,1,355,250Z" transform="translate(-0.98 -178.22)"/><path class="cls-7" d="M353.91,250.22h-0.1a3.66,3.66,0,0,0,1-.21A3,3,0,0,1,353.91,250.22Z" transform="translate(-0.98 -178.22)"/><path class="cls-7" d="M350.41,247.33v0Z" transform="translate(-0.98 -178.22)"/><path class="cls-7" d="M350.41,247.64a1.09,1.09,0,0,0,.21.52A2.64,2.64,0,0,0,350.41,247.64Z" transform="translate(-0.98 -178.22)"/><path class="cls-7" d="M351.75,249.5c0.1,0.1.31,0.21,0.41,0.31A1.42,1.42,0,0,1,351.75,249.5Z" transform="translate(-0.98 -178.22)"/><path class="cls-2" d="M354.32,220.55l-3.19-1.34-1.85-.82v0.1l-2.16-.93L348,245.68h0a3.52,3.52,0,0,1,1.44-3l5.46-2.06Z" transform="translate(-0.98 -178.22)"/><path class="cls-2" d="M383,258l-1.44-10.92-2.06-14.83h0l-1.13-.52v0.1l-5.25-2.37-1,.72L376,259.18a838717.37,838717.37,0,0,1,.21.62,0.78,0.78,0,0,0,.21.41,0.21,0.21,0,0,0,.1.21,1,1,0,0,0,.41.52L377,261a1.55,1.55,0,0,0,.41.41c0.1,0,.1.1,0.21,0.1a0.55,0.55,0,0,0,.31.21c0.1,0,.1.1,0.21,0.1a1.74,1.74,0,0,0,.52.21,0.21,0.21,0,0,1,.21.1,1.75,1.75,0,0,0,.72.1h0a2.27,2.27,0,0,0,.82-0.1c0.1,0,.21,0,0.21-0.1a5,5,0,0,0,.72-0.31h0a2.73,2.73,0,0,0,.62-0.52l0.21-.21a2.15,2.15,0,0,0,.41-0.62A4.63,4.63,0,0,0,383,258Z" transform="translate(-0.98 -178.22)"/><circle class="cls-8" cx="377.65" cy="79.83" r="5.87"/><circle class="cls-5" cx="377.65" cy="79.83" r="3.5"/><circle class="cls-8" cx="351.07" cy="66.85" r="5.87"/><circle class="cls-5" cx="351.07" cy="66.85" r="3.5"/><circle class="cls-8" cx="326.14" cy="55.42" r="5.87"/><path class="cls-5" d="M330.63,233.63a3.5,3.5,0,1,0-3.5,3.5A3.47,3.47,0,0,0,330.63,233.63Z" transform="translate(-0.98 -178.22)"/><circle class="cls-8" cx="304.41" cy="45.22" r="5.87"/><circle class="cls-5" cx="304.41" cy="45.22" r="3.5"/><circle class="cls-8" cx="283.29" cy="32.65" r="5.87"/><circle class="cls-5" cx="283.29" cy="32.65" r="3.5"/><circle class="cls-8" cx="261.56" cy="19.37" r="5.87"/><circle class="cls-5" cx="261.56" cy="19.37" r="3.5"/><path class="cls-2" d="M65.7,291.93h0.52c4.43,5.36,19.47,4.43,19.47,4.43,7.93,0.93,78.9-.93,78.9-0.93,23.07,0,88.69.93,88.69,0.93C287,300.79,373.89,299,373.89,299c74.47-3.5,104.65-31,104.65-31v8.14s2.68,8.86-29.25,19.47c0,0-44.29,12.46-78.08,15,0,0-44.29,4.43-78.9,1.75,0,0-32.86-.93-80.65-1.75H147c-13.29,0-51.4,0-67.36-2.68,0,0-13.6-1-13.91-16.07" transform="translate(-0.98 -178.22)"/><path class="cls-9" d="M86.1,210h0Z" transform="translate(-0.98 -178.22)"/></svg>